<svg width="57" height="57" viewBox="0 0 57 57" fill="none" xmlns="http://www.w3.org/2000/svg">
<circle cx="28.4854" cy="28.6603" r="28.3397" fill="#BDD0FB"/>
<path d="M28.4854 14.8562C30.3159 14.8562 32.0715 15.5834 33.3659 16.8778C34.6603 18.1722 35.3875 19.9277 35.3875 21.7583C35.3875 23.5888 34.6603 25.3444 33.3659 26.6388C32.0715 27.9331 30.3159 28.6603 28.4854 28.6603C26.6549 28.6603 24.8993 27.9331 23.6049 26.6388C22.3105 25.3444 21.5833 23.5888 21.5833 21.7583C21.5833 19.9277 22.3105 18.1722 23.6049 16.8778C24.8993 15.5834 26.6549 14.8562 28.4854 14.8562ZM28.4854 18.3072C27.5701 18.3072 26.6923 18.6708 26.0452 19.318C25.398 19.9652 25.0344 20.843 25.0344 21.7583C25.0344 22.6735 25.398 23.5513 26.0452 24.1985C26.6923 24.8457 27.5701 25.2093 28.4854 25.2093C29.4007 25.2093 30.2785 24.8457 30.9256 24.1985C31.5728 23.5513 31.9364 22.6735 31.9364 21.7583C31.9364 20.843 31.5728 19.9652 30.9256 19.318C30.2785 18.6708 29.4007 18.3072 28.4854 18.3072ZM28.4854 30.3858C33.0925 30.3858 42.2895 32.6808 42.2895 37.2879V42.4645H14.6813V37.2879C14.6813 32.6808 23.8783 30.3858 28.4854 30.3858ZM28.4854 33.6643C23.3606 33.6643 17.9598 36.1836 17.9598 37.2879V39.186H39.011V37.2879C39.011 36.1836 33.6102 33.6643 28.4854 33.6643Z" fill="white"/>
</svg>
