<svg width="676" height="225" viewBox="0 0 676 225" fill="none" xmlns="http://www.w3.org/2000/svg">
<rect x="0.654297" y="0.145996" width="675" height="224" fill="#677FFF"/>
<rect x="541.107" y="0.145996" width="38.1786" height="127.555" fill="url(#paint0_linear_18_3)"/>
<rect x="502.51" y="0.145996" width="38.1786" height="97.4158" fill="url(#paint1_linear_18_3)"/>
<rect x="176.391" y="224.146" width="47.7997" height="97.4158" transform="rotate(180 176.391 224.146)" fill="url(#paint2_linear_18_3)"/>
<rect x="224.189" y="224.146" width="47.7997" height="160.963" transform="rotate(180 224.189 224.146)" fill="url(#paint3_linear_18_3)"/>
<rect x="128.591" y="224.146" width="47.7997" height="32.5384" transform="rotate(180 128.591 224.146)" fill="url(#paint4_linear_18_3)"/>
<rect x="271.989" y="224.146" width="47.7997" height="32.5384" transform="rotate(180 271.989 224.146)" fill="url(#paint5_linear_18_3)"/>
<path fill-rule="evenodd" clip-rule="evenodd" d="M633.652 0.145996H579.286V177.352H675.652V42.146C675.652 18.95 656.848 0.145996 633.652 0.145996Z" fill="url(#paint6_linear_18_3)"/>
<defs>
<linearGradient id="paint0_linear_18_3" x1="560.197" y1="0.145996" x2="560.197" y2="127.701" gradientUnits="userSpaceOnUse">
<stop stop-color="#677FFF"/>
<stop offset="0.0001" stop-color="#798DF9" stop-opacity="0.84009"/>
<stop offset="0.45625" stop-color="#BDC3E2" stop-opacity="0.246875"/>
<stop offset="1" stop-color="#D9D9D9" stop-opacity="0"/>
</linearGradient>
<linearGradient id="paint1_linear_18_3" x1="521.599" y1="0.145996" x2="521.599" y2="97.5618" gradientUnits="userSpaceOnUse">
<stop stop-color="#9DACFF" stop-opacity="0.39"/>
<stop offset="1" stop-color="#D9D9D9" stop-opacity="0"/>
</linearGradient>
<linearGradient id="paint2_linear_18_3" x1="200.29" y1="224.146" x2="200.29" y2="321.562" gradientUnits="userSpaceOnUse">
<stop stop-color="#9DACFF" stop-opacity="0.39"/>
<stop offset="1" stop-color="#D9D9D9" stop-opacity="0"/>
</linearGradient>
<linearGradient id="paint3_linear_18_3" x1="248.089" y1="224.146" x2="248.089" y2="385.109" gradientUnits="userSpaceOnUse">
<stop stop-color="#9DACFF" stop-opacity="0.13"/>
<stop offset="1" stop-color="#D9D9D9" stop-opacity="0"/>
</linearGradient>
<linearGradient id="paint4_linear_18_3" x1="152.491" y1="224.146" x2="152.491" y2="256.684" gradientUnits="userSpaceOnUse">
<stop stop-color="#9DACFF" stop-opacity="0.39"/>
<stop offset="1" stop-color="#D9D9D9" stop-opacity="0"/>
</linearGradient>
<linearGradient id="paint5_linear_18_3" x1="295.889" y1="224.146" x2="295.889" y2="256.684" gradientUnits="userSpaceOnUse">
<stop stop-color="#9DACFF" stop-opacity="0.39"/>
<stop offset="1" stop-color="#D9D9D9" stop-opacity="0"/>
</linearGradient>
<linearGradient id="paint6_linear_18_3" x1="627.469" y1="0.145996" x2="627.469" y2="177.352" gradientUnits="userSpaceOnUse">
<stop stop-color="#677FFF"/>
<stop offset="0.0001" stop-color="#798DF9" stop-opacity="0.84009"/>
<stop offset="0.45625" stop-color="#BDC3E2" stop-opacity="0.246875"/>
<stop offset="1" stop-color="#D9D9D9" stop-opacity="0"/>
</linearGradient>
</defs>
</svg>
