<svg width="98" height="96" viewBox="0 0 98 96" fill="none" xmlns="http://www.w3.org/2000/svg">
<path d="M74.1368 54.7385L64.9185 49.7697C65.7259 49.1135 66.4997 48.2697 67.0717 47.3322C69.8641 42.8635 68.2155 37.1135 63.3709 34.5197C60.4776 32.9572 57.0796 32.9572 54.2199 34.0822L54.2536 34.051L51.2929 35.2697L50.9229 32.2697L50.8892 32.301C50.5864 29.4572 48.8033 26.7072 45.91 25.1447C41.0654 22.5666 34.9086 24.1135 32.0826 28.5822C31.5107 29.5197 31.1406 30.551 30.9387 31.551L21.6868 26.6135C18.4571 24.8947 14.3526 25.8947 12.5022 28.8947L7.45568 37.0197C6.51366 38.5197 7.0856 40.426 8.70048 41.2697L14.5208 44.3947L28.7183 52.0197H6.8501V83.2697C6.8501 86.7385 9.878 89.5197 13.5788 89.5197H67.4081C71.1425 89.5197 74.1368 86.7385 74.1368 83.2697V67.2385L76.5927 63.2697C78.4431 60.2697 77.3665 56.4572 74.1368 54.7385ZM55.4311 41.0822C56.3395 39.5197 58.4253 39.0822 60.0066 39.926C61.6215 40.801 62.1934 42.6447 61.2514 44.2072C60.3094 45.7697 58.2571 46.2072 56.6422 45.3635C55.061 44.4885 54.4891 42.6447 55.4311 41.0822ZM47.4576 47.6447L70.7724 60.1447L67.4081 65.551L44.0933 53.051L47.4576 47.6447ZM37.1291 83.2697H13.5788V58.2697H37.1291V83.2697ZM38.273 49.926L14.9581 37.426L18.3225 32.0197L41.6373 44.5197L38.273 49.926ZM39.1813 35.9885C37.5665 35.1135 37.0282 33.2697 37.9365 31.7072C38.8113 30.1447 40.9308 29.7072 42.5457 30.551C44.1606 31.426 44.6989 33.2697 43.7568 34.8322C42.8485 36.3947 40.7962 36.8322 39.1813 35.9885ZM43.8578 83.2697V60.1447L67.4081 72.7697V83.2697H43.8578Z" fill="#677FFF"/>
<path d="M79.0724 34.976H72.4359V36.976H79.0724V34.976ZM81.4726 31.736L79.1277 29.616L77.5681 31.026L79.913 33.146L81.4726 31.736ZM85.7089 24.976H83.4967V30.976H85.7089V24.976ZM91.6375 31.026L90.0779 29.616L87.733 31.736L89.2926 33.146L91.6375 31.026ZM90.1332 34.976V36.976H96.7697V34.976H90.1332ZM84.6028 32.976C83.7227 32.976 82.8787 33.292 82.2564 33.8546C81.6341 34.4172 81.2845 35.1803 81.2845 35.976C81.2845 36.7716 81.6341 37.5347 82.2564 38.0973C82.8787 38.6599 83.7227 38.976 84.6028 38.976C85.4828 38.976 86.3269 38.6599 86.9491 38.0973C87.5714 37.5347 87.921 36.7716 87.921 35.976C87.921 35.1803 87.5714 34.4172 86.9491 33.8546C86.3269 33.292 85.4828 32.976 84.6028 32.976ZM87.733 40.216L90.0779 42.336L91.6375 40.926L89.2926 38.806L87.733 40.216ZM77.5681 40.926L79.1277 42.336L81.4726 40.216L79.913 38.806L77.5681 40.926ZM83.4967 46.976H85.7089V40.976H83.4967V46.976Z" fill="#FBCF66"/>
<path d="M13.524 11.976H6.88751V13.976H13.524V11.976ZM15.9242 8.73595L13.5793 6.61595L12.0197 8.02595L14.3646 10.146L15.9242 8.73595ZM20.1605 1.97595H17.9483V7.97595H20.1605V1.97595ZM26.0891 8.02595L24.5295 6.61595L22.1846 8.73595L23.7442 10.146L26.0891 8.02595ZM24.5848 11.976V13.976H31.2213V11.976H24.5848ZM19.0544 9.97595C18.1744 9.97595 17.3304 10.292 16.7081 10.8546C16.0858 11.4172 15.7362 12.1803 15.7362 12.976C15.7362 13.7716 16.0858 14.5347 16.7081 15.0973C17.3304 15.6599 18.1744 15.976 19.0544 15.976C19.9345 15.976 20.7785 15.6599 21.4008 15.0973C22.0231 14.5347 22.3727 13.7716 22.3727 12.976C22.3727 12.1803 22.0231 11.4172 21.4008 10.8546C20.7785 10.292 19.9345 9.97595 19.0544 9.97595ZM22.1846 17.216L24.5295 19.336L26.0891 17.926L23.7442 15.806L22.1846 17.216ZM12.0197 17.926L13.5793 19.336L15.9242 17.216L14.3646 15.806L12.0197 17.926ZM17.9483 23.976H20.1605V17.976H17.9483V23.976Z" fill="#FBCF66"/>
</svg>
