<svg width="191" height="217" viewBox="0 0 191 217" fill="none" xmlns="http://www.w3.org/2000/svg">
<path fill-rule="evenodd" clip-rule="evenodd" d="M71.3561 58.1297C43.0522 58.1297 20.1074 81.0745 20.1074 109.378C20.1074 137.682 43.0522 160.627 71.3561 160.627H138.934C167.238 160.627 190.183 137.682 190.183 109.378C190.183 81.0745 167.238 58.1297 138.934 58.1297H71.3561ZM75.5669 85.6541C62.5211 85.6541 51.9453 96.2298 51.9453 109.276C51.9453 122.322 62.5211 132.897 75.5669 132.897H134.518C147.564 132.897 158.14 122.322 158.14 109.276C158.14 96.2298 147.564 85.6541 134.518 85.6541H75.5669Z" fill="#517AFA"/>
<path fill-rule="evenodd" clip-rule="evenodd" d="M16.8213 40.4649C16.8213 18.1167 34.938 0 57.2861 0H116.032C138.38 0 156.497 18.1167 156.497 40.4649C156.497 62.813 138.38 80.9297 116.032 80.9297H57.2861C34.938 80.9297 16.8213 62.813 16.8213 40.4649ZM55.2321 38.9243C55.2321 30.3594 62.1754 23.4162 70.7403 23.4162H71.1511C79.7159 23.4162 86.6592 30.3594 86.6592 38.9243C86.6592 47.4892 79.716 54.4324 71.1511 54.4324H70.7403C62.1754 54.4324 55.2321 47.4892 55.2321 38.9243ZM110.794 23.4162C102.229 23.4162 95.2862 30.3594 95.2862 38.9243C95.2862 47.4892 102.229 54.4324 110.794 54.4324H111.205C119.77 54.4324 126.713 47.4892 126.713 38.9243C126.713 30.3594 119.77 23.4162 111.205 23.4162H110.794Z" fill="#517AFA"/>
<rect x="0.183594" y="54.4324" width="49.203" height="49.9135" rx="10" fill="#FF965B"/>
<path d="M40.335 77.9514C40.335 75.793 42.0847 74.0432 44.2431 74.0432H45.0647C47.2231 74.0432 48.9728 75.793 48.9728 77.9514C48.9728 80.1097 47.2231 81.8595 45.0647 81.8595H44.2431C42.0847 81.8595 40.335 80.1097 40.335 77.9514Z" fill="#FF965B" stroke="white" stroke-width="8"/>
<path d="M43.5238 77.4379C43.5238 78.4588 42.6501 79.2865 41.5724 79.2865C40.4947 79.2865 39.6211 78.4588 39.6211 77.4379C39.6211 76.4169 40.4947 75.5892 41.5724 75.5892C42.6501 75.5892 43.5238 76.4169 43.5238 77.4379Z" fill="white"/>
<path d="M43.3834 196.058C43.3834 199.401 42.5554 202.053 40.8994 204.016C39.2434 205.979 36.8208 206.96 33.6314 206.96C30.3194 206.96 26.9614 206.04 23.5574 204.2V172.46H28.8474V186.26C30.2581 184.849 31.4694 183.914 32.4814 183.454C33.4934 182.963 34.5361 182.718 35.6094 182.718C38.0628 182.718 39.9641 183.669 41.3134 185.57C42.6934 187.471 43.3834 190.139 43.3834 193.574V196.058ZM34.1834 187.64C33.4474 187.64 32.6654 187.855 31.8374 188.284C31.0401 188.713 30.0434 189.557 28.8474 190.814V201.256C29.6754 201.593 30.4268 201.839 31.1014 201.992C31.8068 202.145 32.4968 202.222 33.1714 202.222C34.8888 202.222 36.1154 201.67 36.8514 200.566C37.5874 199.462 37.9554 197.959 37.9554 196.058V193.574C37.9554 191.519 37.6181 190.017 36.9434 189.066C36.2994 188.115 35.3794 187.64 34.1834 187.64ZM63.3737 206.5V203.418C61.963 204.645 60.6443 205.549 59.4177 206.132C58.191 206.684 56.949 206.96 55.6917 206.96C53.6063 206.96 51.9963 206.255 50.8617 204.844C49.727 203.403 49.1597 201.394 49.1597 198.818V183.178H54.4497V198.174C54.4497 200.75 55.4003 202.038 57.3017 202.038C58.0683 202.038 58.8963 201.854 59.7857 201.486C60.7057 201.118 61.8097 200.413 63.0977 199.37V183.178H68.3877V206.5H63.3737ZM95.0371 208.846C95.0371 211.33 94.0558 213.262 92.0931 214.642C90.1611 216.053 87.4624 216.758 83.9971 216.758C82.3718 216.758 80.6544 216.574 78.8451 216.206C77.0358 215.838 75.3644 215.225 73.8311 214.366L75.3491 210.18C76.8211 210.916 78.2778 211.437 79.7191 211.744C81.1604 212.081 82.5711 212.25 83.9511 212.25C85.8831 212.25 87.3551 211.989 88.3671 211.468C89.3791 210.947 89.8851 210.257 89.8851 209.398C89.8851 208.079 89.1031 207.42 87.5391 207.42H82.0191C80.5164 207.42 79.3051 207.175 78.3851 206.684C77.4651 206.193 76.7904 205.565 76.3611 204.798C75.9318 204.001 75.7171 203.173 75.7171 202.314C75.7171 201.425 75.9011 200.597 76.2691 199.83C76.6678 199.033 77.2044 198.297 77.8791 197.622C76.7751 196.947 75.8858 196.043 75.2111 194.908C74.5671 193.773 74.2451 192.409 74.2451 190.814C74.2451 189.005 74.6284 187.502 75.3951 186.306C76.1618 185.11 77.2044 184.221 78.5231 183.638C79.8724 183.025 81.3598 182.718 82.9851 182.718H83.7671C84.3804 182.718 84.9784 182.764 85.5611 182.856C86.1438 182.917 86.6958 183.025 87.2171 183.178H95.5431V187.686L90.9431 186.95C91.4031 187.441 91.7558 188.054 92.0011 188.79C92.2771 189.495 92.4151 190.369 92.4151 191.412C92.4151 192.976 92.0164 194.325 91.2191 195.46C90.4524 196.564 89.4098 197.423 88.0911 198.036C86.8031 198.619 85.3618 198.91 83.7671 198.91H82.9851C82.3718 198.91 81.7891 198.864 81.2371 198.772C80.8998 199.14 80.6544 199.523 80.5011 199.922C80.3478 200.29 80.2711 200.643 80.2711 200.98C80.2711 202.053 80.9611 202.59 82.3411 202.59H87.9531C90.0691 202.59 91.7711 203.142 93.0591 204.246C94.3778 205.319 95.0371 206.853 95.0371 208.846ZM83.7671 194.586C84.7178 194.586 85.5458 194.264 86.2511 193.62C86.9871 192.976 87.3551 192.041 87.3551 190.814C87.3551 189.587 86.9871 188.652 86.2511 188.008C85.5458 187.364 84.7178 187.042 83.7671 187.042H82.9851C82.0038 187.042 81.1451 187.364 80.4091 188.008C79.7038 188.652 79.3511 189.587 79.3511 190.814C79.3511 192.041 79.7038 192.976 80.4091 193.62C81.1451 194.264 82.0038 194.586 82.9851 194.586H83.7671ZM117.819 205.166C116.224 205.81 114.721 206.27 113.311 206.546C111.9 206.822 110.566 206.96 109.309 206.96C105.843 206.96 103.221 205.979 101.443 204.016C99.6639 202.053 98.7746 199.447 98.7746 196.196V193.436C98.7746 191.259 99.1733 189.373 99.9706 187.778C100.768 186.183 101.903 184.941 103.375 184.052C104.847 183.163 106.579 182.718 108.573 182.718C110.198 182.718 111.716 183.055 113.127 183.73C114.568 184.374 115.733 185.401 116.623 186.812C117.543 188.192 118.003 189.971 118.003 192.148C118.003 192.792 117.957 193.482 117.865 194.218C117.773 194.923 117.619 195.675 117.405 196.472H103.881C103.942 198.373 104.417 199.799 105.307 200.75C106.196 201.701 107.622 202.176 109.585 202.176C110.627 202.176 111.701 202.053 112.805 201.808C113.939 201.563 115.105 201.195 116.301 200.704L117.819 205.166ZM108.573 187.18C107.162 187.18 106.058 187.64 105.261 188.56C104.494 189.449 104.049 190.737 103.927 192.424H112.759C112.789 192.271 112.805 192.133 112.805 192.01C112.805 191.857 112.805 191.719 112.805 191.596C112.805 190.124 112.391 189.02 111.563 188.284C110.735 187.548 109.738 187.18 108.573 187.18ZM138.127 205.718C137.33 206.086 136.41 206.377 135.367 206.592C134.324 206.837 133.266 206.96 132.193 206.96C130.414 206.96 128.988 206.592 127.915 205.856C126.842 205.12 126.06 204.093 125.569 202.774C125.109 201.455 124.879 199.953 124.879 198.266V187.778H121.107V183.178H124.879V177.106H130.169V183.178H137.437V187.778H130.169V198.266C130.169 199.677 130.43 200.658 130.951 201.21C131.503 201.731 132.285 201.992 133.297 201.992C133.788 201.992 134.309 201.946 134.861 201.854C135.444 201.731 136.088 201.532 136.793 201.256L138.127 205.718ZM147.808 178.762H142.242V173.288H147.808V178.762ZM147.67 206.5H142.38V183.178H147.67V206.5ZM166.366 187.64C165.6 187.64 164.726 187.824 163.744 188.192C162.763 188.56 161.598 189.281 160.248 190.354V206.5H154.958V183.178H159.972V186.306C161.414 185.049 162.778 184.144 164.066 183.592C165.354 183.009 166.658 182.718 167.976 182.718C170.215 182.718 171.917 183.439 173.082 184.88C174.248 186.291 174.83 188.284 174.83 190.86V206.5H169.54V191.504C169.54 188.928 168.482 187.64 166.366 187.64Z" fill="#517AFA"/>
<rect x="142.17" y="173.179" width="5.57714" height="5.9526" fill="#FF965B"/>
</svg>
