<svg width="71" height="31" viewBox="0 0 71 31" fill="none" xmlns="http://www.w3.org/2000/svg">
<path fill-rule="evenodd" clip-rule="evenodd" d="M31.4225 11.5684C26.6295 11.5684 22.744 15.4539 22.744 20.247C22.744 25.04 26.6295 28.9255 31.4225 28.9255H42.8664C47.6594 28.9255 51.5449 25.04 51.5449 20.247C51.5449 15.4539 47.6594 11.5684 42.8664 11.5684H31.4225ZM32.1364 16.2295C29.9272 16.2295 28.1363 18.0204 28.1363 20.2296C28.1363 22.4388 29.9272 24.2298 32.1364 24.2298H42.1193C44.3285 24.2298 46.1194 22.4388 46.1194 20.2296C46.1194 18.0204 44.3285 16.2295 42.1193 16.2295H32.1364Z" fill="#677FFF"/>
<path fill-rule="evenodd" clip-rule="evenodd" d="M22.1873 8.57709C22.1873 4.79262 25.2552 1.7247 29.0397 1.7247H38.9878C42.7723 1.7247 45.8402 4.79262 45.8402 8.57709C45.8402 12.3616 42.7723 15.4295 38.9878 15.4295H29.0397C25.2552 15.4295 22.1873 12.3616 22.1873 8.57709ZM28.6919 8.31623C28.6919 6.86584 29.8677 5.69006 31.3181 5.69006H31.3877C32.8381 5.69006 34.0138 6.86584 34.0138 8.31623C34.0138 9.76663 32.8381 10.9424 31.3877 10.9424H31.3181C29.8677 10.9424 28.6919 9.76663 28.6919 8.31623ZM38.0992 5.69006C36.6488 5.69006 35.4731 6.86584 35.4731 8.31623C35.4731 9.76663 36.6488 10.9424 38.0992 10.9424H38.1688C39.6192 10.9424 40.795 9.76663 40.795 8.31623C40.795 6.86584 39.6192 5.69006 38.1688 5.69006H38.0992Z" fill="#677FFF"/>
<rect x="17.6994" y="10.9424" width="8.33212" height="8.45244" rx="4.16606" fill="#FF965B"/>
<path d="M25.2982 13.586H25.159C24.4194 13.586 23.8199 14.1855 23.8199 14.9251C23.8199 15.6647 24.4194 16.2643 25.159 16.2643M25.2982 13.586C26.0378 13.586 26.6373 14.1855 26.6373 14.9251C26.6373 15.6647 26.0378 16.2643 25.2982 16.2643H25.159M25.2982 13.586V14.9251V13.586ZM25.159 16.2643L25.159 14.9251L25.159 16.2643Z" fill="#FF965B" stroke="white" stroke-width="8"/>
<path d="M25.0392 14.8381C25.0392 15.011 24.8912 15.1512 24.7087 15.1512C24.5262 15.1512 24.3783 15.011 24.3783 14.8381C24.3783 14.6652 24.5262 14.5251 24.7087 14.5251C24.8912 14.5251 25.0392 14.6652 25.0392 14.8381Z" fill="white"/>
</svg>
