<svg width="484" height="441" viewBox="0 0 484 441" fill="none" xmlns="http://www.w3.org/2000/svg">
<circle cx="263.196" cy="220.513" r="219.871" fill="#E9F0FF"/>
<rect x="0.933594" y="360.643" width="177.792" height="21.1593" rx="10.5796" fill="#E9F0FF"/>
<rect x="77.8848" y="392.187" width="108.331" height="21.1593" rx="10.5796" fill="#E9F0FF"/>
<rect x="38.8701" y="392.187" width="30.1412" height="21.1593" rx="10.5796" fill="#E9F0FF"/>
<g filter="url(#filter0_d_26_2)">
<rect x="101.055" y="48.922" width="324.282" height="79" rx="15" fill="white"/>
</g>
<path d="M144.846 83.297H141.43V71.3387H138.013V83.297H134.596V71.3387H131.18V83.297C131.18 86.9187 134.016 89.857 137.586 90.0791V105.505H141.857V90.0791C145.427 89.857 148.263 86.9187 148.263 83.297V71.3387H144.846V83.297ZM153.388 78.172V91.8387H157.659V105.505H161.93V71.3387C157.215 71.3387 153.388 75.1654 153.388 78.172Z" fill="#697BDA"/>
<path d="M198.344 98.922V80.0129H209.683V82.0442H200.634V88.4334H208.833V90.4646H200.634V98.922H198.344ZM218.029 99.2175C216.749 99.2175 215.625 98.9128 214.659 98.3034C213.699 97.694 212.948 96.8415 212.406 95.7459C211.871 94.6502 211.603 93.3699 211.603 91.905C211.603 90.4277 211.871 89.1381 212.406 88.0363C212.948 86.9345 213.699 86.079 214.659 85.4696C215.625 84.8602 216.749 84.5555 218.029 84.5555C219.309 84.5555 220.43 84.8602 221.39 85.4696C222.356 86.079 223.107 86.9345 223.643 88.0363C224.184 89.1381 224.455 90.4277 224.455 91.905C224.455 93.3699 224.184 94.6502 223.643 95.7459C223.107 96.8415 222.356 97.694 221.39 98.3034C220.43 98.9128 219.309 99.2175 218.029 99.2175ZM218.029 97.2601C219.002 97.2601 219.802 97.0108 220.43 96.5122C221.058 96.0136 221.522 95.3581 221.824 94.5456C222.125 93.7331 222.276 92.8529 222.276 91.905C222.276 90.957 222.125 90.0737 221.824 89.2551C221.522 88.4364 221.058 87.7747 220.43 87.27C219.802 86.7653 219.002 86.5129 218.029 86.5129C217.057 86.5129 216.256 86.7653 215.629 87.27C215.001 87.7747 214.536 88.4364 214.234 89.2551C213.933 90.0737 213.782 90.957 213.782 91.905C213.782 92.8529 213.933 93.7331 214.234 94.5456C214.536 95.3581 215.001 96.0136 215.629 96.5122C216.256 97.0108 217.057 97.2601 218.029 97.2601ZM233.543 99.2175C232.262 99.2175 231.139 98.9128 230.173 98.3034C229.213 97.694 228.462 96.8415 227.92 95.7459C227.384 94.6502 227.117 93.3699 227.117 91.905C227.117 90.4277 227.384 89.1381 227.92 88.0363C228.462 86.9345 229.213 86.079 230.173 85.4696C231.139 84.8602 232.262 84.5555 233.543 84.5555C234.823 84.5555 235.943 84.8602 236.904 85.4696C237.87 86.079 238.621 86.9345 239.156 88.0363C239.698 89.1381 239.969 90.4277 239.969 91.905C239.969 93.3699 239.698 94.6502 239.156 95.7459C238.621 96.8415 237.87 97.694 236.904 98.3034C235.943 98.9128 234.823 99.2175 233.543 99.2175ZM233.543 97.2601C234.515 97.2601 235.316 97.0108 235.943 96.5122C236.571 96.0136 237.036 95.3581 237.338 94.5456C237.639 93.7331 237.79 92.8529 237.79 91.905C237.79 90.957 237.639 90.0737 237.338 89.2551C237.036 88.4364 236.571 87.7747 235.943 87.27C235.316 86.7653 234.515 86.5129 233.543 86.5129C232.57 86.5129 231.77 86.7653 231.142 87.27C230.514 87.7747 230.05 88.4364 229.748 89.2551C229.446 90.0737 229.296 90.957 229.296 91.905C229.296 92.8529 229.446 93.7331 229.748 94.5456C230.05 95.3581 230.514 96.0136 231.142 96.5122C231.77 97.0108 232.57 97.2601 233.543 97.2601ZM248.65 99.2175C247.468 99.2175 246.425 98.9189 245.52 98.3219C244.615 97.7186 243.908 96.8692 243.397 95.7736C242.886 94.6718 242.63 93.3699 242.63 91.868C242.63 90.3784 242.886 89.0858 243.397 87.9902C243.908 86.8945 244.618 86.0482 245.529 85.4511C246.44 84.8541 247.493 84.5555 248.687 84.5555C249.61 84.5555 250.34 84.7094 250.875 85.0172C251.417 85.3188 251.829 85.6635 252.113 86.0513C252.402 86.4329 252.627 86.7468 252.787 86.993H252.971V80.0129H255.15V98.922H253.045V96.743H252.787C252.627 97.0015 252.399 97.3278 252.103 97.7217C251.808 98.1095 251.386 98.4573 250.838 98.765C250.291 99.0666 249.561 99.2175 248.65 99.2175ZM248.946 97.2601C249.82 97.2601 250.558 97.0323 251.162 96.5768C251.765 96.1152 252.223 95.4781 252.537 94.6656C252.851 93.8469 253.008 92.9021 253.008 91.8311C253.008 90.7724 252.854 89.846 252.547 89.052C252.239 88.2518 251.783 87.6301 251.18 87.1869C250.577 86.7376 249.832 86.5129 248.946 86.5129C248.022 86.5129 247.253 86.7499 246.637 87.2238C246.028 87.6916 245.569 88.3287 245.262 89.1351C244.96 89.9353 244.809 90.8339 244.809 91.8311C244.809 92.8406 244.963 93.7577 245.271 94.5825C245.585 95.4012 246.047 96.0536 246.656 96.5399C247.271 97.02 248.035 97.2601 248.946 97.2601Z" fill="black"/>
<path d="M351.631 88.4518V90.4831H343.358V88.4518H351.631ZM361.005 101.286V77.6493H362.519V101.286H361.005ZM366.101 84.7402C365.991 83.8046 365.541 83.0782 364.753 82.5612C363.965 82.0442 362.999 81.7856 361.854 81.7856C361.017 81.7856 360.285 81.921 359.657 82.1919C359.035 82.4627 358.549 82.8351 358.198 83.3091C357.853 83.783 357.681 84.3216 357.681 84.9248C357.681 85.4296 357.801 85.8635 358.041 86.2267C358.287 86.5837 358.601 86.8822 358.983 87.1223C359.364 87.3562 359.765 87.5501 360.183 87.704C360.602 87.8517 360.986 87.9717 361.337 88.064L363.258 88.5811C363.75 88.7103 364.298 88.8889 364.901 89.1166C365.51 89.3443 366.092 89.6552 366.646 90.0491C367.206 90.4369 367.668 90.9355 368.031 91.5449C368.394 92.1542 368.576 92.9021 368.576 93.7885C368.576 94.8103 368.308 95.7335 367.773 96.5584C367.243 97.3832 366.468 98.0387 365.446 98.525C364.43 99.0112 363.196 99.2544 361.743 99.2544C360.389 99.2544 359.217 99.0359 358.226 98.5988C357.241 98.1618 356.465 97.5524 355.899 96.7707C355.339 95.989 355.022 95.0811 354.948 94.047H357.312C357.373 94.761 357.613 95.3519 358.032 95.8197C358.456 96.2814 358.992 96.6261 359.638 96.8538C360.291 97.0754 360.992 97.1862 361.743 97.1862C362.617 97.1862 363.402 97.0446 364.098 96.7615C364.793 96.4722 365.344 96.0721 365.751 95.5612C366.157 95.0442 366.36 94.4409 366.36 93.7515C366.36 93.1237 366.184 92.6128 365.834 92.2189C365.483 91.8249 365.021 91.5049 364.449 91.2586C363.876 91.0124 363.258 90.797 362.593 90.6123L360.266 89.9476C358.789 89.5228 357.619 88.9166 356.758 88.1287C355.896 87.3408 355.465 86.3098 355.465 85.0356C355.465 83.9769 355.751 83.0536 356.324 82.2657C356.902 81.4717 357.678 80.8562 358.65 80.4192C359.629 79.976 360.722 79.7544 361.928 79.7544C363.147 79.7544 364.23 79.9729 365.178 80.4099C366.126 80.8408 366.877 81.4317 367.431 82.1826C367.991 82.9336 368.287 83.7861 368.317 84.7402H366.101ZM378.656 80.0129V98.922H376.366V82.4135H376.255L371.639 85.4788V83.1521L376.366 80.0129H378.656ZM390.262 99.1805C388.871 99.1805 387.686 98.802 386.707 98.0449C385.728 97.2816 384.98 96.1767 384.463 94.7302C383.946 93.2776 383.688 91.5233 383.688 89.4675C383.688 87.4239 383.946 85.6789 384.463 84.2324C384.987 82.7797 385.738 81.6718 386.716 80.9085C387.701 80.1391 388.883 79.7544 390.262 79.7544C391.641 79.7544 392.819 80.1391 393.798 80.9085C394.783 81.6718 395.534 82.7797 396.051 84.2324C396.574 85.6789 396.836 87.4239 396.836 89.4675C396.836 91.5233 396.577 93.2776 396.06 94.7302C395.543 96.1767 394.795 97.2816 393.816 98.0449C392.838 98.802 391.653 99.1805 390.262 99.1805ZM390.262 97.1493C391.641 97.1493 392.712 96.4845 393.475 95.155C394.238 93.8254 394.62 91.9296 394.62 89.4675C394.62 87.8301 394.444 86.436 394.093 85.2849C393.749 84.1339 393.25 83.2568 392.598 82.6535C391.951 82.0503 391.173 81.7487 390.262 81.7487C388.895 81.7487 387.827 82.4227 387.058 83.7707C386.288 85.1126 385.904 87.0115 385.904 89.4675C385.904 91.1048 386.076 92.4959 386.421 93.6407C386.766 94.7856 387.261 95.6566 387.907 96.2537C388.56 96.8507 389.345 97.1493 390.262 97.1493ZM406.512 99.1805C405.121 99.1805 403.936 98.802 402.957 98.0449C401.978 97.2816 401.23 96.1767 400.713 94.7302C400.196 93.2776 399.938 91.5233 399.938 89.4675C399.938 87.4239 400.196 85.6789 400.713 84.2324C401.237 82.7797 401.988 81.6718 402.966 80.9085C403.951 80.1391 405.133 79.7544 406.512 79.7544C407.891 79.7544 409.069 80.1391 410.048 80.9085C411.033 81.6718 411.784 82.7797 412.301 84.2324C412.824 85.6789 413.086 87.4239 413.086 89.4675C413.086 91.5233 412.827 93.2776 412.31 94.7302C411.793 96.1767 411.045 97.2816 410.066 98.0449C409.088 98.802 407.903 99.1805 406.512 99.1805ZM406.512 97.1493C407.891 97.1493 408.962 96.4845 409.725 95.155C410.488 93.8254 410.87 91.9296 410.87 89.4675C410.87 87.8301 410.694 86.436 410.343 85.2849C409.999 84.1339 409.5 83.2568 408.848 82.6535C408.201 82.0503 407.423 81.7487 406.512 81.7487C405.145 81.7487 404.077 82.4227 403.308 83.7707C402.538 85.1126 402.154 87.0115 402.154 89.4675C402.154 91.1048 402.326 92.4959 402.671 93.6407C403.016 94.7856 403.511 95.6566 404.157 96.2537C404.81 96.8507 405.595 97.1493 406.512 97.1493Z" fill="#FF0000"/>
<g filter="url(#filter1_d_26_2)">
<rect x="101.054" y="141.513" width="324.282" height="79" rx="15" fill="white"/>
</g>
<path d="M211.27 178.513C211.066 177.892 210.799 177.335 210.466 176.842C210.14 176.344 209.749 175.919 209.294 175.568C208.844 175.217 208.334 174.949 207.761 174.765C207.189 174.58 206.561 174.488 205.878 174.488C204.757 174.488 203.739 174.777 202.821 175.356C201.904 175.934 201.175 176.787 200.633 177.913C200.092 179.04 199.821 180.421 199.821 182.059C199.821 183.696 200.095 185.078 200.642 186.204C201.19 187.331 201.932 188.183 202.868 188.762C203.803 189.34 204.856 189.63 206.025 189.63C207.109 189.63 208.063 189.399 208.888 188.937C209.718 188.47 210.365 187.811 210.826 186.961C211.294 186.106 211.528 185.099 211.528 183.942L212.23 184.09H206.542V182.059H213.744V184.09C213.744 185.647 213.412 187.001 212.747 188.153C212.088 189.304 211.177 190.196 210.014 190.83C208.857 191.458 207.527 191.772 206.025 191.772C204.351 191.772 202.88 191.378 201.612 190.59C200.35 189.802 199.365 188.682 198.657 187.229C197.956 185.777 197.605 184.053 197.605 182.059C197.605 180.563 197.805 179.218 198.205 178.024C198.611 176.824 199.184 175.802 199.922 174.959C200.661 174.115 201.535 173.469 202.544 173.02C203.554 172.57 204.665 172.346 205.878 172.346C206.875 172.346 207.804 172.496 208.666 172.798C209.534 173.094 210.306 173.515 210.983 174.063C211.667 174.605 212.236 175.254 212.691 176.011C213.147 176.762 213.461 177.596 213.633 178.513H211.27ZM221.544 191.846C220.645 191.846 219.829 191.676 219.097 191.338C218.364 190.993 217.783 190.498 217.352 189.851C216.921 189.199 216.706 188.411 216.706 187.488C216.706 186.675 216.866 186.017 217.186 185.512C217.506 185.001 217.934 184.601 218.469 184.312C219.005 184.022 219.595 183.807 220.242 183.665C220.894 183.518 221.55 183.401 222.208 183.314C223.07 183.204 223.769 183.121 224.304 183.065C224.846 183.004 225.24 182.902 225.486 182.76C225.738 182.619 225.865 182.373 225.865 182.022V181.948C225.865 181.037 225.615 180.329 225.117 179.824C224.624 179.32 223.876 179.067 222.873 179.067C221.833 179.067 221.017 179.295 220.426 179.751C219.835 180.206 219.42 180.692 219.18 181.209L217.112 180.471C217.481 179.609 217.974 178.938 218.589 178.458C219.211 177.972 219.888 177.633 220.62 177.442C221.359 177.245 222.085 177.147 222.799 177.147C223.255 177.147 223.778 177.202 224.369 177.313C224.966 177.418 225.541 177.636 226.095 177.969C226.656 178.301 227.12 178.803 227.49 179.474C227.859 180.144 228.044 181.043 228.044 182.17V191.513H225.865V189.593H225.754C225.606 189.901 225.36 190.23 225.015 190.581C224.67 190.932 224.212 191.23 223.639 191.476C223.067 191.723 222.368 191.846 221.544 191.846ZM221.876 189.888C222.738 189.888 223.464 189.719 224.055 189.38C224.652 189.042 225.101 188.605 225.403 188.069C225.711 187.534 225.865 186.971 225.865 186.38V184.385C225.772 184.496 225.569 184.598 225.255 184.69C224.947 184.776 224.59 184.853 224.184 184.921C223.784 184.983 223.393 185.038 223.012 185.087C222.636 185.13 222.331 185.167 222.098 185.198C221.531 185.272 221.002 185.392 220.509 185.558C220.023 185.718 219.629 185.961 219.328 186.287C219.032 186.608 218.884 187.045 218.884 187.599C218.884 188.356 219.165 188.928 219.725 189.316C220.291 189.697 221.008 189.888 221.876 189.888ZM242.066 180.508L240.109 181.062C239.986 180.735 239.804 180.418 239.564 180.111C239.33 179.797 239.01 179.538 238.604 179.335C238.198 179.132 237.677 179.03 237.043 179.03C236.176 179.03 235.452 179.23 234.874 179.63C234.301 180.024 234.015 180.526 234.015 181.135C234.015 181.677 234.212 182.105 234.606 182.419C235 182.733 235.615 182.994 236.453 183.204L238.558 183.721C239.826 184.028 240.77 184.499 241.392 185.133C242.014 185.761 242.325 186.571 242.325 187.562C242.325 188.374 242.091 189.1 241.623 189.741C241.161 190.381 240.515 190.885 239.684 191.255C238.853 191.624 237.887 191.809 236.785 191.809C235.338 191.809 234.141 191.495 233.193 190.867C232.245 190.239 231.645 189.322 231.393 188.116L233.461 187.599C233.658 188.362 234.03 188.934 234.578 189.316C235.132 189.697 235.855 189.888 236.748 189.888C237.764 189.888 238.57 189.673 239.167 189.242C239.77 188.805 240.072 188.282 240.072 187.672C240.072 187.18 239.899 186.768 239.555 186.435C239.21 186.097 238.681 185.844 237.967 185.678L235.603 185.124C234.304 184.816 233.35 184.339 232.741 183.693C232.138 183.041 231.836 182.225 231.836 181.246C231.836 180.446 232.061 179.738 232.51 179.123C232.966 178.507 233.584 178.024 234.366 177.673C235.154 177.322 236.046 177.147 237.043 177.147C238.447 177.147 239.549 177.455 240.349 178.07C241.155 178.686 241.728 179.498 242.066 180.508Z" fill="black"/>
<path d="M351.629 181.043V183.074H343.356V181.043H351.629ZM361.003 193.877V170.241H362.517V193.877H361.003ZM366.099 177.331C365.989 176.396 365.539 175.67 364.751 175.153C363.964 174.635 362.997 174.377 361.852 174.377C361.015 174.377 360.283 174.512 359.655 174.783C359.033 175.054 358.547 175.426 358.196 175.9C357.851 176.374 357.679 176.913 357.679 177.516C357.679 178.021 357.799 178.455 358.039 178.818C358.285 179.175 358.599 179.474 358.981 179.714C359.362 179.947 359.763 180.141 360.181 180.295C360.6 180.443 360.984 180.563 361.335 180.655L363.256 181.172C363.748 181.302 364.296 181.48 364.899 181.708C365.509 181.936 366.09 182.246 366.644 182.64C367.204 183.028 367.666 183.527 368.029 184.136C368.392 184.746 368.574 185.493 368.574 186.38C368.574 187.402 368.306 188.325 367.771 189.15C367.241 189.974 366.466 190.63 365.444 191.116C364.428 191.603 363.194 191.846 361.741 191.846C360.387 191.846 359.215 191.627 358.224 191.19C357.239 190.753 356.463 190.144 355.897 189.362C355.337 188.58 355.02 187.672 354.946 186.638H357.31C357.371 187.352 357.611 187.943 358.03 188.411C358.455 188.873 358.99 189.217 359.636 189.445C360.289 189.667 360.991 189.778 361.741 189.778C362.616 189.778 363.4 189.636 364.096 189.353C364.791 189.063 365.342 188.663 365.749 188.153C366.155 187.635 366.358 187.032 366.358 186.343C366.358 185.715 366.183 185.204 365.832 184.81C365.481 184.416 365.019 184.096 364.447 183.85C363.874 183.604 363.256 183.388 362.591 183.204L360.264 182.539C358.787 182.114 357.617 181.508 356.756 180.72C355.894 179.932 355.463 178.901 355.463 177.627C355.463 176.568 355.749 175.645 356.322 174.857C356.9 174.063 357.676 173.447 358.648 173.01C359.627 172.567 360.72 172.346 361.926 172.346C363.145 172.346 364.228 172.564 365.176 173.001C366.124 173.432 366.875 174.023 367.429 174.774C367.989 175.525 368.285 176.377 368.315 177.331H366.099ZM378.026 172.346C378.802 172.352 379.577 172.5 380.353 172.789C381.128 173.078 381.836 173.558 382.476 174.229C383.117 174.894 383.631 175.802 384.018 176.953C384.406 178.104 384.6 179.547 384.6 181.283C384.6 182.964 384.44 184.456 384.12 185.761C383.806 187.06 383.35 188.156 382.753 189.048C382.162 189.941 381.442 190.618 380.593 191.079C379.75 191.541 378.796 191.772 377.731 191.772C376.672 191.772 375.727 191.563 374.896 191.144C374.071 190.719 373.394 190.131 372.865 189.38C372.342 188.623 372.006 187.746 371.858 186.749H374.111C374.314 187.617 374.718 188.334 375.321 188.9C375.93 189.461 376.733 189.741 377.731 189.741C379.189 189.741 380.34 189.104 381.184 187.829C382.033 186.555 382.458 184.755 382.458 182.428H382.31C381.965 182.945 381.556 183.391 381.082 183.767C380.608 184.142 380.082 184.432 379.503 184.635C378.925 184.838 378.309 184.939 377.657 184.939C376.573 184.939 375.579 184.672 374.675 184.136C373.776 183.595 373.056 182.853 372.514 181.911C371.979 180.963 371.711 179.88 371.711 178.661C371.711 177.504 371.969 176.445 372.486 175.485C373.01 174.519 373.742 173.749 374.684 173.177C375.632 172.604 376.746 172.327 378.026 172.346ZM378.026 174.377C377.251 174.377 376.552 174.571 375.93 174.959C375.315 175.34 374.825 175.857 374.462 176.51C374.105 177.156 373.927 177.873 373.927 178.661C373.927 179.449 374.099 180.166 374.444 180.812C374.795 181.452 375.272 181.963 375.875 182.345C376.484 182.72 377.177 182.908 377.952 182.908C378.537 182.908 379.082 182.794 379.586 182.567C380.091 182.333 380.531 182.016 380.907 181.616C381.288 181.209 381.587 180.751 381.802 180.24C382.018 179.723 382.126 179.184 382.126 178.624C382.126 177.885 381.947 177.193 381.59 176.547C381.239 175.9 380.753 175.377 380.131 174.977C379.516 174.577 378.814 174.377 378.026 174.377ZM394.398 191.772C393.007 191.772 391.822 191.393 390.844 190.636C389.865 189.873 389.117 188.768 388.6 187.322C388.083 185.869 387.825 184.115 387.825 182.059C387.825 180.015 388.083 178.27 388.6 176.824C389.123 175.371 389.874 174.263 390.853 173.5C391.838 172.73 393.02 172.346 394.398 172.346C395.777 172.346 396.956 172.73 397.935 173.5C398.92 174.263 399.67 175.371 400.188 176.824C400.711 178.27 400.972 180.015 400.972 182.059C400.972 184.115 400.714 185.869 400.197 187.322C399.68 188.768 398.932 189.873 397.953 190.636C396.974 191.393 395.79 191.772 394.398 191.772ZM394.398 189.741C395.777 189.741 396.848 189.076 397.612 187.746C398.375 186.417 398.756 184.521 398.756 182.059C398.756 180.421 398.581 179.027 398.23 177.876C397.885 176.725 397.387 175.848 396.734 175.245C396.088 174.642 395.309 174.34 394.398 174.34C393.032 174.34 391.964 175.014 391.195 176.362C390.425 177.704 390.04 179.603 390.04 182.059C390.04 183.696 390.213 185.087 390.558 186.232C390.902 187.377 391.398 188.248 392.044 188.845C392.696 189.442 393.481 189.741 394.398 189.741Z" fill="#FF0000"/>
<path d="M158.336 175.973C157.793 175.973 157.272 175.757 156.887 175.373C156.503 174.988 156.287 174.467 156.287 173.924C156.287 173.38 156.503 172.859 156.887 172.475C157.272 172.091 157.793 171.875 158.336 171.875C158.88 171.875 159.401 172.091 159.785 172.475C160.169 172.859 160.385 173.38 160.385 173.924C160.385 174.467 160.169 174.988 159.785 175.373C159.401 175.757 158.88 175.973 158.336 175.973ZM146.041 175.973H133.747V165.727H146.041V175.973ZM161.963 170.297L161.984 170.276L154.361 162.654L152.189 164.826L156.512 169.149C154.586 169.826 153.213 171.731 153.213 173.924C153.213 174.597 153.346 175.263 153.603 175.884C153.861 176.506 154.238 177.071 154.714 177.546C155.675 178.507 156.978 179.047 158.336 179.047C159.074 179.047 159.75 178.883 160.385 178.616V193.391C160.385 193.934 160.169 194.455 159.785 194.839C159.401 195.224 158.88 195.44 158.336 195.44C157.793 195.44 157.272 195.224 156.887 194.839C156.503 194.455 156.287 193.934 156.287 193.391V184.169C156.287 181.895 154.443 180.071 152.189 180.071H150.14V165.727C150.14 163.453 148.295 161.629 146.041 161.629H133.747C131.472 161.629 129.648 163.453 129.648 165.727V198.513H150.14V183.145H153.213V193.391C153.213 194.749 153.753 196.052 154.714 197.013C155.675 197.974 156.978 198.513 158.336 198.513C159.009 198.513 159.675 198.381 160.297 198.123C160.918 197.866 161.483 197.489 161.959 197.013C162.434 196.537 162.812 195.972 163.069 195.351C163.326 194.729 163.459 194.063 163.459 193.391V173.924C163.459 172.51 162.885 171.219 161.963 170.297Z" fill="#FF0000"/>
<g filter="url(#filter2_d_26_2)">
<rect x="101.054" y="234.104" width="324.282" height="79" rx="15" fill="white"/>
</g>
<path d="M198.343 284.104V265.195H204.733C206.216 265.195 207.429 265.463 208.37 265.998C209.318 266.528 210.02 267.245 210.476 268.15C210.931 269.055 211.159 270.064 211.159 271.178C211.159 272.292 210.931 273.305 210.476 274.216C210.026 275.127 209.331 275.853 208.389 276.395C207.447 276.93 206.241 277.198 204.77 277.198H200.19V275.167H204.696C205.711 275.167 206.527 274.991 207.142 274.641C207.758 274.29 208.204 273.816 208.481 273.219C208.764 272.615 208.906 271.935 208.906 271.178C208.906 270.421 208.764 269.744 208.481 269.147C208.204 268.55 207.755 268.082 207.133 267.744C206.512 267.399 205.687 267.226 204.659 267.226H200.633V284.104H198.343ZM218.725 284.437C217.827 284.437 217.011 284.267 216.278 283.929C215.546 283.584 214.964 283.089 214.533 282.442C214.103 281.79 213.887 281.002 213.887 280.079C213.887 279.266 214.047 278.608 214.367 278.103C214.687 277.592 215.115 277.192 215.651 276.903C216.186 276.613 216.777 276.398 217.423 276.256C218.076 276.109 218.731 275.992 219.39 275.905C220.252 275.795 220.95 275.712 221.486 275.656C222.028 275.595 222.421 275.493 222.668 275.351C222.92 275.21 223.046 274.964 223.046 274.613V274.539C223.046 273.628 222.797 272.92 222.298 272.415C221.806 271.911 221.058 271.658 220.055 271.658C219.015 271.658 218.199 271.886 217.608 272.342C217.017 272.797 216.602 273.283 216.362 273.8L214.293 273.062C214.663 272.2 215.155 271.529 215.771 271.049C216.392 270.563 217.069 270.224 217.802 270.033C218.541 269.836 219.267 269.738 219.981 269.738C220.436 269.738 220.96 269.793 221.551 269.904C222.148 270.009 222.723 270.227 223.277 270.56C223.837 270.892 224.302 271.394 224.671 272.065C225.041 272.735 225.225 273.634 225.225 274.761V284.104H223.046V282.184H222.935C222.788 282.492 222.542 282.821 222.197 283.172C221.852 283.523 221.394 283.821 220.821 284.067C220.249 284.314 219.55 284.437 218.725 284.437ZM219.058 282.479C219.919 282.479 220.646 282.31 221.237 281.971C221.834 281.633 222.283 281.196 222.585 280.66C222.892 280.125 223.046 279.562 223.046 278.971V276.976C222.954 277.087 222.751 277.189 222.437 277.281C222.129 277.367 221.772 277.444 221.366 277.512C220.966 277.574 220.575 277.629 220.193 277.678C219.818 277.721 219.513 277.758 219.279 277.789C218.713 277.863 218.184 277.983 217.691 278.149C217.205 278.309 216.811 278.552 216.509 278.878C216.214 279.199 216.066 279.636 216.066 280.19C216.066 280.947 216.346 281.519 216.906 281.907C217.473 282.288 218.19 282.479 219.058 282.479ZM229.202 284.104V269.922H231.307V272.065H231.455C231.714 271.363 232.181 270.793 232.859 270.356C233.536 269.919 234.299 269.701 235.148 269.701C235.308 269.701 235.508 269.704 235.748 269.71C235.989 269.716 236.17 269.726 236.293 269.738V271.954C236.219 271.935 236.05 271.908 235.785 271.871C235.527 271.828 235.253 271.806 234.964 271.806C234.274 271.806 233.659 271.951 233.117 272.24C232.582 272.523 232.157 272.917 231.843 273.422C231.535 273.92 231.381 274.49 231.381 275.13V284.104H229.202ZM245.932 269.922V271.769H238.583V269.922H245.932ZM240.725 266.525H242.904V280.042C242.904 280.657 242.993 281.119 243.172 281.427C243.356 281.728 243.59 281.931 243.873 282.036C244.163 282.135 244.467 282.184 244.788 282.184C245.028 282.184 245.225 282.172 245.378 282.147C245.532 282.116 245.655 282.092 245.748 282.073L246.191 284.03C246.043 284.086 245.837 284.141 245.572 284.197C245.308 284.258 244.972 284.289 244.566 284.289C243.95 284.289 243.347 284.157 242.756 283.892C242.172 283.627 241.685 283.224 241.297 282.682C240.916 282.141 240.725 281.458 240.725 280.633V266.525ZM250.614 289.422C250.244 289.422 249.915 289.392 249.626 289.33C249.336 289.275 249.136 289.219 249.025 289.164L249.579 287.244C250.109 287.379 250.577 287.428 250.983 287.391C251.389 287.354 251.749 287.173 252.063 286.846C252.383 286.526 252.676 286.006 252.94 285.286L253.347 284.178L248.102 269.922H250.466L254.381 281.224H254.528L258.443 269.922H260.807L254.787 286.172C254.516 286.905 254.181 287.511 253.78 287.991C253.38 288.478 252.916 288.838 252.386 289.072C251.863 289.306 251.272 289.422 250.614 289.422Z" fill="black"/>
<path d="M343.378 273.634V275.665H335.105V273.634H343.378ZM352.752 286.468V262.832H354.266V286.468H352.752ZM357.848 269.922C357.738 268.987 357.288 268.261 356.5 267.744C355.713 267.226 354.746 266.968 353.601 266.968C352.764 266.968 352.032 267.103 351.404 267.374C350.782 267.645 350.296 268.017 349.945 268.491C349.6 268.965 349.428 269.504 349.428 270.107C349.428 270.612 349.548 271.046 349.788 271.409C350.034 271.766 350.348 272.065 350.73 272.305C351.111 272.538 351.512 272.732 351.93 272.886C352.349 273.034 352.733 273.154 353.084 273.246L355.005 273.763C355.497 273.893 356.045 274.071 356.648 274.299C357.258 274.527 357.839 274.837 358.393 275.231C358.953 275.619 359.415 276.118 359.778 276.727C360.141 277.337 360.323 278.084 360.323 278.971C360.323 279.993 360.055 280.916 359.52 281.741C358.99 282.565 358.215 283.221 357.193 283.707C356.177 284.194 354.943 284.437 353.491 284.437C352.136 284.437 350.964 284.218 349.973 283.781C348.988 283.344 348.212 282.735 347.646 281.953C347.086 281.171 346.769 280.263 346.695 279.229H349.059C349.12 279.943 349.36 280.534 349.779 281.002C350.204 281.464 350.739 281.808 351.385 282.036C352.038 282.258 352.74 282.369 353.491 282.369C354.365 282.369 355.149 282.227 355.845 281.944C356.54 281.654 357.091 281.254 357.498 280.744C357.904 280.226 358.107 279.623 358.107 278.934C358.107 278.306 357.932 277.795 357.581 277.401C357.23 277.007 356.768 276.687 356.196 276.441C355.623 276.195 355.005 275.979 354.34 275.795L352.013 275.13C350.536 274.705 349.366 274.099 348.505 273.311C347.643 272.523 347.212 271.492 347.212 270.218C347.212 269.159 347.498 268.236 348.071 267.448C348.649 266.654 349.425 266.038 350.397 265.601C351.376 265.158 352.469 264.937 353.675 264.937C354.894 264.937 355.977 265.155 356.925 265.592C357.873 266.023 358.624 266.614 359.178 267.365C359.738 268.116 360.034 268.968 360.064 269.922H357.848ZM370.403 265.195V284.104H368.113V267.596H368.002L363.386 270.661V268.334L368.113 265.195H370.403ZM381.75 284.363C380.667 284.363 379.691 284.147 378.823 283.717C377.956 283.286 377.26 282.695 376.737 281.944C376.214 281.193 375.927 280.337 375.878 279.377H378.094C378.18 280.233 378.568 280.94 379.257 281.501C379.953 282.055 380.784 282.332 381.75 282.332C382.526 282.332 383.215 282.15 383.818 281.787C384.428 281.424 384.905 280.925 385.25 280.291C385.6 279.651 385.776 278.928 385.776 278.121C385.776 277.297 385.594 276.561 385.231 275.915C384.874 275.262 384.382 274.748 383.754 274.373C383.126 273.997 382.409 273.806 381.603 273.8C381.024 273.794 380.43 273.883 379.821 274.068C379.211 274.247 378.71 274.477 378.316 274.761L376.174 274.502L377.318 265.195H387.142V267.226H379.239L378.574 272.803H378.685C379.073 272.495 379.559 272.24 380.144 272.037C380.728 271.834 381.338 271.732 381.972 271.732C383.129 271.732 384.16 272.009 385.065 272.563C385.976 273.111 386.69 273.862 387.207 274.816C387.73 275.77 387.992 276.86 387.992 278.084C387.992 279.291 387.721 280.368 387.179 281.316C386.644 282.258 385.905 283.003 384.963 283.55C384.022 284.092 382.951 284.363 381.75 284.363ZM397.827 284.363C396.436 284.363 395.251 283.984 394.272 283.227C393.294 282.464 392.546 281.359 392.029 279.913C391.512 278.46 391.253 276.706 391.253 274.65C391.253 272.606 391.512 270.861 392.029 269.415C392.552 267.962 393.303 266.854 394.282 266.091C395.267 265.321 396.448 264.937 397.827 264.937C399.206 264.937 400.385 265.321 401.363 266.091C402.348 266.854 403.099 267.962 403.616 269.415C404.139 270.861 404.401 272.606 404.401 274.65C404.401 276.706 404.142 278.46 403.625 279.913C403.108 281.359 402.361 282.464 401.382 283.227C400.403 283.984 399.218 284.363 397.827 284.363ZM397.827 282.332C399.206 282.332 400.277 281.667 401.04 280.337C401.803 279.008 402.185 277.112 402.185 274.65C402.185 273.012 402.01 271.618 401.659 270.467C401.314 269.316 400.816 268.439 400.163 267.836C399.517 267.233 398.738 266.931 397.827 266.931C396.461 266.931 395.393 267.605 394.623 268.953C393.854 270.295 393.469 272.194 393.469 274.65C393.469 276.287 393.642 277.678 393.986 278.823C394.331 279.968 394.826 280.839 395.473 281.436C396.125 282.033 396.91 282.332 397.827 282.332Z" fill="#FF0000"/>
<path d="M153.957 251.225L151.861 253.321L154.966 256.425C155.393 256.911 155.606 257.473 155.606 258.114C155.606 258.754 155.393 259.356 154.966 259.783L148.076 266.788L150.017 268.884L157.062 261.879C158.09 260.734 158.595 259.472 158.595 258.114C158.595 256.755 158.09 255.475 157.062 254.33L153.957 251.225ZM146.233 255.145L144.137 257.241L145.321 258.327C145.748 258.754 145.961 259.336 145.961 260.054C145.961 260.772 145.748 261.355 145.321 261.782L144.137 262.868L146.233 264.964L147.32 263.78C148.348 262.635 148.872 261.393 148.872 260.054C148.872 258.657 148.348 257.396 147.32 256.231L146.233 255.145ZM166.512 258.23C165.173 258.23 163.931 258.754 162.786 259.783L151.861 270.728L153.957 272.668L164.785 261.879C165.27 261.393 165.853 261.141 166.512 261.141C167.172 261.141 167.754 261.393 168.239 261.879L169.423 263.062L171.422 260.967L170.335 259.783C169.19 258.754 167.91 258.23 166.512 258.23ZM139.344 263.936L129.641 291.104L156.809 281.401L139.344 263.936ZM162.631 269.874C161.273 269.874 160.031 270.398 158.866 271.426L155.781 274.512L157.877 276.608L160.962 273.522C161.447 273.037 161.991 272.785 162.631 272.785C163.272 272.785 163.854 273.037 164.339 273.522L167.483 276.608L169.52 274.609L166.415 271.426C165.27 270.398 163.99 269.874 162.631 269.874Z" fill="#E337FF"/>
<g filter="url(#filter3_d_26_2)">
<rect x="69.0098" y="326.695" width="378.203" height="79" rx="15" fill="white"/>
</g>
<path d="M181.291 362.513C181.18 361.578 180.731 360.852 179.943 360.335C179.155 359.817 178.189 359.559 177.044 359.559C176.207 359.559 175.474 359.694 174.846 359.965C174.225 360.236 173.738 360.608 173.387 361.082C173.043 361.556 172.87 362.095 172.87 362.698C172.87 363.203 172.99 363.637 173.23 364C173.477 364.357 173.791 364.656 174.172 364.896C174.554 365.129 174.954 365.323 175.373 365.477C175.791 365.625 176.176 365.745 176.527 365.837L178.447 366.354C178.94 366.484 179.487 366.662 180.091 366.89C180.7 367.118 181.282 367.429 181.836 367.822C182.396 368.21 182.857 368.709 183.221 369.318C183.584 369.928 183.765 370.675 183.765 371.562C183.765 372.584 183.498 373.507 182.962 374.332C182.433 375.156 181.657 375.812 180.635 376.298C179.62 376.785 178.386 377.028 176.933 377.028C175.579 377.028 174.406 376.809 173.415 376.372C172.43 375.935 171.655 375.326 171.088 374.544C170.528 373.762 170.211 372.854 170.137 371.82H172.501C172.563 372.534 172.803 373.125 173.221 373.593C173.646 374.055 174.181 374.399 174.828 374.627C175.48 374.849 176.182 374.96 176.933 374.96C177.807 374.96 178.592 374.818 179.287 374.535C179.983 374.246 180.534 373.845 180.94 373.335C181.346 372.817 181.549 372.214 181.549 371.525C181.549 370.897 181.374 370.386 181.023 369.992C180.672 369.598 180.211 369.278 179.638 369.032C179.066 368.786 178.447 368.57 177.782 368.386L175.456 367.721C173.978 367.296 172.809 366.69 171.947 365.902C171.085 365.114 170.654 364.083 170.654 362.809C170.654 361.75 170.941 360.827 171.513 360.039C172.092 359.245 172.867 358.629 173.84 358.192C174.819 357.749 175.911 357.528 177.118 357.528C178.336 357.528 179.42 357.746 180.368 358.183C181.315 358.614 182.066 359.205 182.62 359.956C183.181 360.707 183.476 361.559 183.507 362.513H181.291ZM191.408 377.028C190.509 377.028 189.694 376.858 188.961 376.52C188.229 376.175 187.647 375.68 187.216 375.033C186.785 374.381 186.57 373.593 186.57 372.67C186.57 371.857 186.73 371.199 187.05 370.694C187.37 370.183 187.798 369.783 188.333 369.494C188.869 369.204 189.46 368.989 190.106 368.847C190.758 368.7 191.414 368.583 192.073 368.496C192.934 368.386 193.633 368.303 194.169 368.247C194.71 368.186 195.104 368.084 195.35 367.942C195.603 367.801 195.729 367.555 195.729 367.204V367.13C195.729 366.219 195.48 365.511 194.981 365.006C194.489 364.502 193.741 364.249 192.737 364.249C191.697 364.249 190.882 364.477 190.291 364.933C189.7 365.388 189.284 365.874 189.044 366.391L186.976 365.653C187.345 364.791 187.838 364.12 188.453 363.64C189.075 363.154 189.752 362.815 190.485 362.624C191.223 362.427 191.95 362.329 192.664 362.329C193.119 362.329 193.642 362.384 194.233 362.495C194.83 362.6 195.406 362.818 195.96 363.151C196.52 363.483 196.985 363.985 197.354 364.656C197.723 365.326 197.908 366.225 197.908 367.352V376.695H195.729V374.775H195.618C195.47 375.083 195.224 375.412 194.879 375.763C194.535 376.114 194.076 376.412 193.504 376.658C192.931 376.905 192.233 377.028 191.408 377.028ZM191.74 375.07C192.602 375.07 193.328 374.901 193.919 374.562C194.516 374.224 194.966 373.787 195.267 373.251C195.575 372.716 195.729 372.153 195.729 371.562V369.567C195.637 369.678 195.433 369.78 195.119 369.872C194.812 369.958 194.455 370.035 194.048 370.103C193.648 370.165 193.258 370.22 192.876 370.269C192.5 370.312 192.196 370.349 191.962 370.38C191.396 370.454 190.866 370.574 190.374 370.74C189.887 370.9 189.494 371.143 189.192 371.469C188.896 371.79 188.749 372.227 188.749 372.781C188.749 373.538 189.029 374.11 189.589 374.498C190.155 374.879 190.872 375.07 191.74 375.07ZM204.064 357.786V376.695H201.885V357.786H204.064ZM212.228 377.028C211.329 377.028 210.514 376.858 209.781 376.52C209.049 376.175 208.467 375.68 208.036 375.033C207.606 374.381 207.39 373.593 207.39 372.67C207.39 371.857 207.55 371.199 207.87 370.694C208.19 370.183 208.618 369.783 209.154 369.494C209.689 369.204 210.28 368.989 210.926 368.847C211.579 368.7 212.234 368.583 212.893 368.496C213.755 368.386 214.453 368.303 214.989 368.247C215.53 368.186 215.924 368.084 216.171 367.942C216.423 367.801 216.549 367.555 216.549 367.204V367.13C216.549 366.219 216.3 365.511 215.801 365.006C215.309 364.502 214.561 364.249 213.558 364.249C212.517 364.249 211.702 364.477 211.111 364.933C210.52 365.388 210.105 365.874 209.865 366.391L207.796 365.653C208.166 364.791 208.658 364.12 209.274 363.64C209.895 363.154 210.572 362.815 211.305 362.624C212.044 362.427 212.77 362.329 213.484 362.329C213.939 362.329 214.463 362.384 215.053 362.495C215.651 362.6 216.226 362.818 216.78 363.151C217.34 363.483 217.805 363.985 218.174 364.656C218.544 365.326 218.728 366.225 218.728 367.352V376.695H216.549V374.775H216.438C216.291 375.083 216.044 375.412 215.7 375.763C215.355 376.114 214.896 376.412 214.324 376.658C213.752 376.905 213.053 377.028 212.228 377.028ZM212.561 375.07C213.422 375.07 214.149 374.901 214.74 374.562C215.337 374.224 215.786 373.787 216.088 373.251C216.395 372.716 216.549 372.153 216.549 371.562V369.567C216.457 369.678 216.254 369.78 215.94 369.872C215.632 369.958 215.275 370.035 214.869 370.103C214.469 370.165 214.078 370.22 213.696 370.269C213.321 370.312 213.016 370.349 212.782 370.38C212.216 370.454 211.686 370.574 211.194 370.74C210.708 370.9 210.314 371.143 210.012 371.469C209.717 371.79 209.569 372.227 209.569 372.781C209.569 373.538 209.849 374.11 210.409 374.498C210.976 374.879 211.693 375.07 212.561 375.07ZM222.705 376.695V362.513H224.81V364.656H224.958C225.217 363.954 225.684 363.384 226.362 362.947C227.039 362.51 227.802 362.292 228.651 362.292C228.811 362.292 229.011 362.295 229.251 362.301C229.491 362.307 229.673 362.317 229.796 362.329V364.545C229.722 364.526 229.553 364.499 229.288 364.462C229.03 364.419 228.756 364.397 228.467 364.397C227.777 364.397 227.162 364.542 226.62 364.831C226.085 365.114 225.66 365.508 225.346 366.013C225.038 366.511 224.884 367.081 224.884 367.721V376.695H222.705ZM234.214 382.013C233.845 382.013 233.516 381.983 233.226 381.921C232.937 381.866 232.737 381.81 232.626 381.755L233.18 379.835C233.709 379.97 234.177 380.019 234.583 379.982C234.99 379.945 235.35 379.764 235.664 379.438C235.984 379.117 236.276 378.597 236.541 377.877L236.947 376.769L231.703 362.513H234.066L237.981 373.815H238.129L242.044 362.513H244.407L238.387 378.763C238.117 379.496 237.781 380.102 237.381 380.582C236.981 381.069 236.516 381.429 235.987 381.663C235.464 381.897 234.873 382.013 234.214 382.013Z" fill="black"/>
<path d="M347.359 379.059V355.423H348.873V379.059H347.359ZM352.456 362.513C352.345 361.578 351.896 360.852 351.108 360.335C350.32 359.817 349.354 359.559 348.209 359.559C347.372 359.559 346.639 359.694 346.011 359.965C345.39 360.236 344.903 360.608 344.552 361.082C344.208 361.556 344.035 362.095 344.035 362.698C344.035 363.203 344.155 363.637 344.396 364C344.642 364.357 344.956 364.656 345.337 364.896C345.719 365.129 346.119 365.323 346.538 365.477C346.956 365.625 347.341 365.745 347.692 365.837L349.612 366.354C350.105 366.484 350.652 366.662 351.256 366.89C351.865 367.118 352.447 367.429 353.001 367.822C353.561 368.21 354.022 368.709 354.386 369.318C354.749 369.928 354.93 370.675 354.93 371.562C354.93 372.584 354.663 373.507 354.127 374.332C353.598 375.156 352.822 375.812 351.8 376.298C350.785 376.785 349.551 377.028 348.098 377.028C346.744 377.028 345.571 376.809 344.58 376.372C343.595 375.935 342.82 375.326 342.253 374.544C341.693 373.762 341.376 372.854 341.302 371.82H343.666C343.728 372.534 343.968 373.125 344.386 373.593C344.811 374.055 345.347 374.399 345.993 374.627C346.645 374.849 347.347 374.96 348.098 374.96C348.972 374.96 349.757 374.818 350.452 374.535C351.148 374.246 351.699 373.845 352.105 373.335C352.511 372.817 352.714 372.214 352.714 371.525C352.714 370.897 352.539 370.386 352.188 369.992C351.837 369.598 351.376 369.278 350.803 369.032C350.231 368.786 349.612 368.57 348.947 368.386L346.621 367.721C345.143 367.296 343.974 366.69 343.112 365.902C342.25 365.114 341.82 364.083 341.82 362.809C341.82 361.75 342.106 360.827 342.678 360.039C343.257 359.245 344.032 358.629 345.005 358.192C345.984 357.749 347.076 357.528 348.283 357.528C349.501 357.528 350.585 357.746 351.533 358.183C352.48 358.614 353.231 359.205 353.785 359.956C354.346 360.707 354.641 361.559 354.672 362.513H352.456ZM358.363 376.695V375.033L364.604 368.201C365.337 367.401 365.94 366.705 366.414 366.114C366.888 365.517 367.239 364.957 367.466 364.434C367.7 363.905 367.817 363.351 367.817 362.772C367.817 362.107 367.657 361.532 367.337 361.045C367.023 360.559 366.592 360.184 366.044 359.919C365.497 359.654 364.881 359.522 364.198 359.522C363.472 359.522 362.838 359.673 362.296 359.974C361.76 360.27 361.345 360.685 361.049 361.221C360.76 361.756 360.616 362.384 360.616 363.104H358.437C358.437 361.996 358.692 361.024 359.203 360.187C359.714 359.35 360.409 358.697 361.29 358.229C362.176 357.762 363.17 357.528 364.272 357.528C365.38 357.528 366.361 357.762 367.217 358.229C368.073 358.697 368.744 359.328 369.23 360.122C369.716 360.916 369.959 361.799 369.959 362.772C369.959 363.468 369.833 364.148 369.581 364.812C369.334 365.471 368.904 366.207 368.288 367.019C367.679 367.826 366.832 368.81 365.749 369.974L361.502 374.516V374.664H370.292V376.695H358.363ZM380.272 376.954C378.881 376.954 377.696 376.575 376.718 375.818C375.739 375.055 374.991 373.95 374.474 372.504C373.957 371.051 373.699 369.297 373.699 367.241C373.699 365.197 373.957 363.452 374.474 362.006C374.997 360.553 375.748 359.445 376.727 358.682C377.712 357.912 378.894 357.528 380.272 357.528C381.651 357.528 382.83 357.912 383.809 358.682C384.794 359.445 385.544 360.553 386.062 362.006C386.585 363.452 386.846 365.197 386.846 367.241C386.846 369.297 386.588 371.051 386.071 372.504C385.554 373.95 384.806 375.055 383.827 375.818C382.848 376.575 381.664 376.954 380.272 376.954ZM380.272 374.923C381.651 374.923 382.722 374.258 383.486 372.928C384.249 371.599 384.63 369.703 384.63 367.241C384.63 365.603 384.455 364.209 384.104 363.058C383.759 361.907 383.261 361.03 382.608 360.427C381.962 359.824 381.183 359.522 380.272 359.522C378.906 359.522 377.838 360.196 377.069 361.544C376.299 362.886 375.915 364.785 375.915 367.241C375.915 368.878 376.087 370.269 376.432 371.414C376.776 372.559 377.272 373.43 377.918 374.027C378.571 374.624 379.355 374.923 380.272 374.923ZM396.522 376.954C395.131 376.954 393.946 376.575 392.968 375.818C391.989 375.055 391.241 373.95 390.724 372.504C390.207 371.051 389.949 369.297 389.949 367.241C389.949 365.197 390.207 363.452 390.724 362.006C391.247 360.553 391.998 359.445 392.977 358.682C393.962 357.912 395.144 357.528 396.522 357.528C397.901 357.528 399.08 357.912 400.059 358.682C401.044 359.445 401.794 360.553 402.312 362.006C402.835 363.452 403.096 365.197 403.096 367.241C403.096 369.297 402.838 371.051 402.321 372.504C401.804 373.95 401.056 375.055 400.077 375.818C399.098 376.575 397.914 376.954 396.522 376.954ZM396.522 374.923C397.901 374.923 398.972 374.258 399.736 372.928C400.499 371.599 400.88 369.703 400.88 367.241C400.88 365.603 400.705 364.209 400.354 363.058C400.009 361.907 399.511 361.03 398.858 360.427C398.212 359.824 397.433 359.522 396.522 359.522C395.156 359.522 394.088 360.196 393.319 361.544C392.549 362.886 392.165 364.785 392.165 367.241C392.165 368.878 392.337 370.269 392.682 371.414C393.026 372.559 393.522 373.43 394.168 374.027C394.821 374.624 395.605 374.923 396.522 374.923ZM412.772 376.954C411.381 376.954 410.196 376.575 409.218 375.818C408.239 375.055 407.491 373.95 406.974 372.504C406.457 371.051 406.199 369.297 406.199 367.241C406.199 365.197 406.457 363.452 406.974 362.006C407.497 360.553 408.248 359.445 409.227 358.682C410.212 357.912 411.394 357.528 412.772 357.528C414.151 357.528 415.33 357.912 416.309 358.682C417.294 359.445 418.044 360.553 418.562 362.006C419.085 363.452 419.346 365.197 419.346 367.241C419.346 369.297 419.088 371.051 418.571 372.504C418.054 373.95 417.306 375.055 416.327 375.818C415.348 376.575 414.164 376.954 412.772 376.954ZM412.772 374.923C414.151 374.923 415.222 374.258 415.986 372.928C416.749 371.599 417.13 369.703 417.13 367.241C417.13 365.603 416.955 364.209 416.604 363.058C416.259 361.907 415.761 361.03 415.108 360.427C414.462 359.824 413.683 359.522 412.772 359.522C411.406 359.522 410.338 360.196 409.569 361.544C408.799 362.886 408.415 364.785 408.415 367.241C408.415 368.878 408.587 370.269 408.932 371.414C409.276 372.559 409.772 373.43 410.418 374.027C411.071 374.624 411.855 374.923 412.772 374.923Z" fill="#008E30"/>
<path d="M105.247 351.695H141.736V376.021H105.247V351.695ZM123.492 357.777C125.105 357.777 126.651 358.417 127.792 359.558C128.932 360.698 129.573 362.245 129.573 363.858C129.573 365.471 128.932 367.018 127.792 368.158C126.651 369.299 125.105 369.94 123.492 369.94C121.879 369.94 120.332 369.299 119.191 368.158C118.051 367.018 117.41 365.471 117.41 363.858C117.41 362.245 118.051 360.698 119.191 359.558C120.332 358.417 121.879 357.777 123.492 357.777ZM113.356 355.75C113.356 356.825 112.929 357.856 112.168 358.616C111.408 359.377 110.377 359.804 109.302 359.804V367.913C110.377 367.913 111.408 368.34 112.168 369.1C112.929 369.86 113.356 370.892 113.356 371.967H133.627C133.627 370.892 134.055 369.86 134.815 369.1C135.575 368.34 136.606 367.913 137.682 367.913V359.804C136.606 359.804 135.575 359.377 134.815 358.616C134.055 357.856 133.627 356.825 133.627 355.75H113.356ZM97.1387 359.804H101.193V380.075H133.627V384.13H97.1387V359.804Z" fill="#009A06"/>
<defs>
<filter id="filter0_d_26_2" x="97.0547" y="48.922" width="332.282" height="87" filterUnits="userSpaceOnUse" color-interpolation-filters="sRGB">
<feFlood flood-opacity="0" result="BackgroundImageFix"/>
<feColorMatrix in="SourceAlpha" type="matrix" values="0 0 0 0 0 0 0 0 0 0 0 0 0 0 0 0 0 0 127 0" result="hardAlpha"/>
<feOffset dy="4"/>
<feGaussianBlur stdDeviation="2"/>
<feComposite in2="hardAlpha" operator="out"/>
<feColorMatrix type="matrix" values="0 0 0 0 0 0 0 0 0 0 0 0 0 0 0 0 0 0 0.25 0"/>
<feBlend mode="normal" in2="BackgroundImageFix" result="effect1_dropShadow_26_2"/>
<feBlend mode="normal" in="SourceGraphic" in2="effect1_dropShadow_26_2" result="shape"/>
</filter>
<filter id="filter1_d_26_2" x="97.0537" y="141.513" width="332.282" height="87" filterUnits="userSpaceOnUse" color-interpolation-filters="sRGB">
<feFlood flood-opacity="0" result="BackgroundImageFix"/>
<feColorMatrix in="SourceAlpha" type="matrix" values="0 0 0 0 0 0 0 0 0 0 0 0 0 0 0 0 0 0 127 0" result="hardAlpha"/>
<feOffset dy="4"/>
<feGaussianBlur stdDeviation="2"/>
<feComposite in2="hardAlpha" operator="out"/>
<feColorMatrix type="matrix" values="0 0 0 0 0 0 0 0 0 0 0 0 0 0 0 0 0 0 0.25 0"/>
<feBlend mode="normal" in2="BackgroundImageFix" result="effect1_dropShadow_26_2"/>
<feBlend mode="normal" in="SourceGraphic" in2="effect1_dropShadow_26_2" result="shape"/>
</filter>
<filter id="filter2_d_26_2" x="97.0537" y="234.104" width="332.282" height="87" filterUnits="userSpaceOnUse" color-interpolation-filters="sRGB">
<feFlood flood-opacity="0" result="BackgroundImageFix"/>
<feColorMatrix in="SourceAlpha" type="matrix" values="0 0 0 0 0 0 0 0 0 0 0 0 0 0 0 0 0 0 127 0" result="hardAlpha"/>
<feOffset dy="4"/>
<feGaussianBlur stdDeviation="2"/>
<feComposite in2="hardAlpha" operator="out"/>
<feColorMatrix type="matrix" values="0 0 0 0 0 0 0 0 0 0 0 0 0 0 0 0 0 0 0.25 0"/>
<feBlend mode="normal" in2="BackgroundImageFix" result="effect1_dropShadow_26_2"/>
<feBlend mode="normal" in="SourceGraphic" in2="effect1_dropShadow_26_2" result="shape"/>
</filter>
<filter id="filter3_d_26_2" x="65.0098" y="326.695" width="386.202" height="87" filterUnits="userSpaceOnUse" color-interpolation-filters="sRGB">
<feFlood flood-opacity="0" result="BackgroundImageFix"/>
<feColorMatrix in="SourceAlpha" type="matrix" values="0 0 0 0 0 0 0 0 0 0 0 0 0 0 0 0 0 0 127 0" result="hardAlpha"/>
<feOffset dy="4"/>
<feGaussianBlur stdDeviation="2"/>
<feComposite in2="hardAlpha" operator="out"/>
<feColorMatrix type="matrix" values="0 0 0 0 0 0 0 0 0 0 0 0 0 0 0 0 0 0 0.25 0"/>
<feBlend mode="normal" in2="BackgroundImageFix" result="effect1_dropShadow_26_2"/>
<feBlend mode="normal" in="SourceGraphic" in2="effect1_dropShadow_26_2" result="shape"/>
</filter>
</defs>
</svg>
