<svg width="483" height="441" viewBox="0 0 483 441" fill="none" xmlns="http://www.w3.org/2000/svg">
<circle cx="262.819" cy="220.513" r="219.871" fill="#E9F0FF"/>
<rect x="0.556641" y="360.643" width="177.792" height="21.1593" rx="10.5796" fill="#E9F0FF"/>
<rect x="77.5078" y="392.187" width="108.331" height="21.1593" rx="10.5796" fill="#E9F0FF"/>
<rect x="38.4932" y="392.187" width="30.1412" height="21.1593" rx="10.5796" fill="#E9F0FF"/>
<path d="M107.392 157.89C106.831 157.89 106.377 152.007 106.377 144.752C106.377 137.495 106.831 131.615 107.392 131.615C107.952 131.615 108.409 137.495 108.409 144.752C108.409 152.007 107.952 157.89 107.392 157.89Z" fill="#E1E1E1"/>
<path d="M100.125 150.639C99.5643 150.639 99.1104 147.84 99.1104 144.388C99.1104 140.935 99.5643 138.136 100.125 138.136C100.686 138.136 101.143 140.935 101.143 144.388C101.143 147.84 100.686 150.639 100.125 150.639Z" fill="#E1E1E1"/>
<path d="M92.8362 148.615C92.2755 148.642 91.7515 147.199 91.6631 145.394C91.5748 143.585 91.9556 142.099 92.5162 142.069C93.0769 142.042 93.6009 143.485 93.6923 145.293C93.7807 147.102 93.3968 148.588 92.8362 148.615Z" fill="#E1E1E1"/>
<path d="M114.981 151.524C114.42 151.514 114.03 148.156 114.113 144.029C114.192 139.899 114.713 136.562 115.273 136.571C115.834 136.584 116.224 139.939 116.142 144.069C116.063 148.196 115.542 151.536 114.981 151.524Z" fill="#E1E1E1"/>
<path d="M123.229 148.776C122.668 148.776 122.211 147.311 122.211 145.503C122.211 143.698 122.668 142.233 123.229 142.233C123.789 142.233 124.243 143.698 124.243 145.503C124.243 147.311 123.789 148.776 123.229 148.776Z" fill="#E1E1E1"/>
<path d="M133.481 145.503C133.481 145.503 133.46 145.36 133.439 145.084C133.421 144.789 133.393 144.379 133.357 143.85C133.341 143.576 133.323 143.272 133.302 142.938C133.265 142.607 133.195 142.245 133.134 141.853C133.009 141.069 132.89 140.16 132.589 139.17C132.129 137.161 131.184 134.787 129.697 132.274C128.198 129.77 126.035 127.153 123.092 124.932C120.154 122.734 116.452 120.862 112.175 120.106C111.105 119.957 110.021 119.735 108.899 119.732C108.339 119.711 107.778 119.656 107.208 119.665C106.642 119.695 106.069 119.726 105.496 119.753C105.206 119.774 104.917 119.774 104.628 119.811L103.765 119.945C103.189 120.039 102.601 120.106 102.022 120.227C100.877 120.537 99.6947 120.768 98.5673 121.239C97.4065 121.61 96.3127 122.181 95.1914 122.719C94.643 123.017 94.1189 123.361 93.5766 123.68C93.0251 123.987 92.5223 124.37 92.0166 124.755C90.9623 125.476 90.0422 126.378 89.0763 127.244C88.208 128.208 87.2939 129.15 86.5413 130.241C84.9996 132.374 83.6559 134.745 82.8394 137.352C81.9954 139.945 81.5414 142.698 81.5048 145.5C81.5414 148.302 81.9954 151.059 82.8394 153.651C83.6529 156.258 84.9996 158.632 86.5383 160.768C87.2909 161.859 88.2049 162.801 89.0763 163.762C90.0422 164.631 90.9623 165.534 92.0135 166.254C92.5223 166.64 93.0251 167.02 93.5766 167.327C94.1189 167.649 94.643 167.992 95.1914 168.29C96.3127 168.828 97.4065 169.399 98.5673 169.77C99.6947 170.241 100.88 170.472 102.022 170.782C102.601 170.904 103.189 170.97 103.765 171.065L104.631 171.198C104.917 171.235 105.206 171.235 105.496 171.256C106.072 171.284 106.642 171.314 107.211 171.344C107.778 171.353 108.342 171.299 108.899 171.28C110.024 171.274 111.105 171.053 112.178 170.901C116.452 170.147 120.157 168.275 123.092 166.075C126.035 163.856 128.198 161.239 129.697 158.735C131.184 156.219 132.129 153.848 132.589 151.84C132.89 150.849 133.009 149.94 133.134 149.156C133.195 148.764 133.265 148.402 133.302 148.068C133.323 147.737 133.341 147.433 133.357 147.159C133.393 146.631 133.421 146.22 133.439 145.926C133.46 145.649 133.481 145.503 133.481 145.503C133.481 145.503 133.488 145.649 133.481 145.926C133.472 146.22 133.457 146.634 133.439 147.166C133.43 147.439 133.417 147.746 133.402 148.08C133.375 148.415 133.308 148.776 133.253 149.171C133.14 149.961 133.034 150.879 132.744 151.876C132.302 153.903 131.376 156.304 129.892 158.851C128.399 161.388 126.23 164.044 123.265 166.302C120.31 168.542 116.568 170.451 112.239 171.232C111.154 171.39 110.057 171.615 108.921 171.624C108.354 171.645 107.784 171.703 107.208 171.697C106.632 171.666 106.054 171.639 105.469 171.609C105.179 171.59 104.884 171.593 104.591 171.554L103.717 171.423C103.132 171.329 102.534 171.259 101.946 171.141C100.785 170.828 99.585 170.594 98.4394 170.123C97.2602 169.746 96.1512 169.168 95.0086 168.624C94.4541 168.326 93.9209 167.977 93.3724 167.652C92.8118 167.342 92.2969 166.956 91.785 166.564C90.7155 165.834 89.7771 164.92 88.7991 164.038C87.9124 163.066 86.9831 162.109 86.2184 161.002C84.6523 158.836 83.2842 156.429 82.4555 153.779C81.5962 151.144 81.1362 148.348 81.0996 145.5C81.1362 142.656 81.5962 139.86 82.4555 137.228C83.2873 134.578 84.6523 132.171 86.2214 130.004C86.9831 128.898 87.9124 127.943 88.7991 126.968C89.7802 126.087 90.7155 125.175 91.785 124.445C92.2999 124.053 92.8118 123.667 93.3724 123.357C93.9239 123.032 94.4541 122.683 95.0116 122.385C96.1512 121.841 97.2602 121.264 98.4394 120.887C99.585 120.413 100.785 120.179 101.946 119.869C102.534 119.75 103.129 119.68 103.714 119.586L104.591 119.455C104.88 119.416 105.176 119.419 105.469 119.401C106.05 119.37 106.632 119.343 107.205 119.316C107.781 119.306 108.354 119.364 108.918 119.385C110.054 119.395 111.151 119.619 112.239 119.777C116.565 120.555 120.31 122.467 123.265 124.707C126.23 126.965 128.396 129.621 129.892 132.159C131.373 134.705 132.302 137.103 132.744 139.13C133.034 140.13 133.14 141.048 133.253 141.835C133.308 142.233 133.375 142.595 133.402 142.929C133.417 143.266 133.43 143.57 133.439 143.844C133.457 144.376 133.472 144.789 133.481 145.084C133.488 145.36 133.481 145.503 133.481 145.503Z" fill="#E1E1E1"/>
<path d="M293.909 90.0767C287.669 90.0767 282.611 85.0319 282.611 78.8109V65.5727C282.611 59.3518 287.669 54.3069 293.909 54.3069C300.146 54.3069 305.204 59.3518 305.204 65.5727V78.8109C305.204 85.0319 300.146 90.0767 293.909 90.0767Z" fill="#F5F5F5"/>
<path d="M293.909 96.9389C284.713 96.9389 277.233 89.478 277.233 80.3062H278.848C278.848 88.5876 285.603 95.3282 293.909 95.3282C302.775 95.3191 308.967 89.1407 308.967 80.3062H310.584C310.584 90.0889 303.726 96.9298 293.909 96.9389Z" fill="#F5F5F5"/>
<path d="M293.099 104.266H294.717V96.1215H293.099V104.266Z" fill="#F5F5F5"/>
<path d="M284.049 104.716H303.765V103.105H284.049V104.716Z" fill="#F5F5F5"/>
<path d="M277.258 61.6798C276.666 61.6798 275.762 61.3546 274.342 60.7559C271.935 59.7317 271.13 59.2151 271.414 58.3581L271.526 58.0238L271.904 57.8262C272.748 57.4494 274.881 58.3216 275.301 58.5009C275.719 58.6772 277.833 59.6071 278.144 60.4763L278.263 60.8075L278.098 61.1935V61.1965C277.925 61.5217 277.666 61.6798 277.258 61.6798Z" fill="#F5F5F5"/>
<path d="M283.708 53.2433C283.193 53.2433 282.413 52.6719 280.789 50.4717C278.864 47.8641 278.961 47.229 278.992 47.0223L279.047 46.6911L279.61 46.2443L279.997 46.2838C280.207 46.3142 280.841 46.4084 282.767 49.0159C285.021 52.0672 284.759 52.6446 284.217 53.0427L284.214 53.0457C284.065 53.1582 283.906 53.2433 283.708 53.2433Z" fill="#F5F5F5"/>
<path d="M293.656 50.1951L293.348 49.9277C293.196 49.7848 292.733 49.3442 292.766 46.2717C292.8 43.1992 293.275 42.7677 293.428 42.6279L293.69 42.3908L294.095 42.3969C294.588 42.4334 295.265 42.4881 295.225 46.299C295.18 50.107 294.503 50.1465 294.01 50.1738" fill="#F5F5F5"/>
<path d="M303.568 52.3832L303.229 52.1128C302.52 51.4594 303.159 50.5385 304.552 48.6877C305.947 46.843 306.657 45.9708 307.492 46.4692L307.803 46.6485L307.913 47.071C308.104 48.0283 306.679 49.9459 306.514 50.1587C306.356 50.3744 304.902 52.2708 303.93 52.3529" fill="#F5F5F5"/>
<path d="M310.876 61.5552C310.432 61.5552 310.243 61.3424 310.103 61.0993C309.67 60.3395 310.505 59.6922 310.907 59.3822C311.376 59.0175 312.028 58.5921 312.738 58.1879C315.736 56.486 316.285 56.8689 316.595 57.4068C317.028 58.1666 316.193 58.8109 315.791 59.1239C315.322 59.4886 314.67 59.911 313.957 60.3183C312.321 61.2452 311.413 61.5552 310.876 61.5552Z" fill="#F5F5F5"/>
<path d="M340.813 390.129C326.995 383.872 321.273 368.564 319.11 354.256C318.747 351.868 318.019 349.412 318.765 347.121C319.509 344.826 321.885 342.915 324.201 343.519C326.124 344.024 327.275 345.929 328.579 347.443C330.316 349.455 332.623 350.959 335.151 351.728C336.815 352.229 338.777 352.363 340.121 351.263C341.964 349.752 341.678 346.878 341.224 344.519C340.377 340.125 339.53 335.73 338.683 331.336C338.229 328.977 337.772 326.567 338.092 324.191C338.409 321.814 339.649 319.432 341.785 318.383C343.917 317.338 346.943 318.116 347.851 320.34C348.226 321.264 348.216 322.298 348.466 323.267C348.713 324.236 349.374 325.233 350.355 325.334C351.352 325.437 352.174 324.592 352.753 323.768C354.752 320.933 355.84 317.557 356.818 314.214C357.799 310.874 358.722 307.47 360.456 304.458C362.186 301.447 364.868 298.818 368.222 298C371.577 297.18 375.577 298.596 377.052 301.757C378.53 304.926 377.214 308.664 375.599 311.752C373.198 316.332 370.139 320.556 366.543 324.249C365.897 324.914 365.194 325.634 365.072 326.564C364.849 328.233 366.638 329.518 368.292 329.746C370.163 330.008 372.046 329.47 373.932 329.342C375.818 329.218 377.966 329.658 378.99 331.269C380.41 333.503 378.856 336.408 377.174 338.432C373.804 342.489 369.74 345.954 365.215 348.628C363.591 349.585 361.863 350.482 360.687 351.962C359.511 353.445 359.057 355.721 360.215 357.229C361.376 358.736 363.652 358.864 365.413 358.189C367.171 357.514 368.621 356.223 370.239 355.247C373.262 353.421 377.503 352.864 380.111 355.284C381.823 356.873 382.421 359.417 382.137 361.742C381.854 364.066 380.803 366.221 379.636 368.242C375.559 375.308 369.801 381.456 362.741 385.464C355.681 389.473 348.823 391.473 340.813 390.129Z" fill="#ECECEC"/>
<path d="M342.003 392.707C341.47 386.975 342.055 388.093 342.832 380.532C343.594 372.965 345.117 364.741 347.009 356.195C347.491 354.062 347.963 351.953 348.432 349.874C348.905 347.798 349.374 345.741 349.956 343.759C351.101 339.784 352.509 336.052 353.956 332.551C355.401 329.047 356.9 325.774 358.326 322.726C359.758 319.678 361.147 316.864 362.521 314.35C365.254 309.315 367.938 305.522 369.885 302.99C370.857 301.72 371.643 300.76 372.186 300.118C372.448 299.812 372.652 299.571 372.807 299.392C372.947 299.228 373.024 299.149 373.03 299.152C373.036 299.158 372.972 299.249 372.841 299.419C372.695 299.608 372.503 299.857 372.256 300.176C371.738 300.836 370.973 301.811 370.022 303.094C368.118 305.656 365.486 309.461 362.795 314.502C361.442 317.019 360.074 319.833 358.658 322.884C357.25 325.938 355.763 329.211 354.331 332.709C352.899 336.207 351.507 339.93 350.37 343.881C349.794 345.856 349.334 347.896 348.862 349.974C348.396 352.053 347.92 354.162 347.442 356.296C345.553 364.835 344.02 373.035 343.237 380.575C342.442 388.111 341.824 386.966 342.317 392.679" fill="#E1E1E1"/>
<path d="M350.075 343.717C350.047 343.729 349.901 343.383 349.657 342.754C349.41 342.124 349.087 341.204 348.7 340.058C347.93 337.769 346.97 334.572 345.928 331.044C344.883 327.513 343.883 324.34 343.076 322.07C342.677 320.933 342.345 320.015 342.107 319.386C341.872 318.754 341.754 318.395 341.784 318.383C341.811 318.371 341.982 318.705 342.265 319.319C342.552 319.93 342.93 320.833 343.368 321.96C344.252 324.209 345.306 327.382 346.351 330.916C347.372 334.402 348.295 337.554 348.999 339.964C349.325 341.049 349.599 341.963 349.822 342.699C350.011 343.346 350.105 343.708 350.075 343.717Z" fill="#E1E1E1"/>
<path d="M379.45 332.406C379.46 332.436 379.036 332.567 378.265 332.776C377.497 332.992 376.385 333.296 375.02 333.715C372.29 334.53 368.558 335.791 364.499 337.359C360.444 338.936 356.833 340.52 354.256 341.742C352.961 342.343 351.928 342.857 351.209 343.206C350.496 343.562 350.094 343.744 350.075 343.717C350.063 343.69 350.438 343.456 351.13 343.054C351.824 342.653 352.839 342.094 354.119 341.456C356.669 340.158 360.27 338.523 364.338 336.943C368.409 335.369 372.171 334.15 374.935 333.408C376.315 333.029 377.443 332.77 378.226 332.606C379.009 332.451 379.444 332.375 379.45 332.406Z" fill="#E1E1E1"/>
<path d="M343.104 379.903C343.088 379.912 342.994 379.797 342.823 379.572C342.628 379.301 342.391 378.97 342.101 378.569C341.474 377.697 340.602 376.411 339.545 374.81C337.43 371.603 334.649 367.084 331.644 362.055C328.637 357.025 325.901 352.488 323.854 349.242C322.857 347.665 322.032 346.37 321.422 345.407C321.16 344.987 320.944 344.644 320.764 344.358C320.621 344.118 320.548 343.984 320.56 343.975C320.575 343.969 320.667 344.082 320.84 344.31C321.035 344.58 321.273 344.908 321.565 345.309C322.19 346.182 323.061 347.467 324.119 349.072C326.233 352.275 329.018 356.797 332.022 361.827C335.026 366.853 337.763 371.394 339.807 374.636C340.809 376.214 341.629 377.511 342.241 378.472C342.503 378.891 342.723 379.24 342.897 379.52C343.046 379.763 343.116 379.894 343.104 379.903Z" fill="#E1E1E1"/>
<path d="M381.12 359.411C381.126 359.426 380.998 359.508 380.748 359.651C380.452 359.815 380.09 360.015 379.648 360.262C378.63 360.812 377.25 361.559 375.58 362.462C372.143 364.322 367.427 366.947 362.22 369.853C357.01 372.761 352.266 375.341 348.789 377.131C347.052 378.028 345.639 378.739 344.652 379.207C344.195 379.423 343.82 379.599 343.512 379.745C343.25 379.863 343.11 379.918 343.104 379.903C343.098 379.888 343.223 379.809 343.472 379.663C343.768 379.499 344.134 379.298 344.575 379.055C345.593 378.502 346.97 377.757 348.643 376.852C352.08 374.992 356.796 372.369 362.003 369.461C367.214 366.555 371.958 363.972 375.431 362.182C377.171 361.289 378.582 360.578 379.572 360.107C380.026 359.891 380.401 359.715 380.708 359.569C380.973 359.453 381.113 359.398 381.12 359.411Z" fill="#E1E1E1"/>
<path d="M437.057 392.67C437.057 392.783 356.233 392.874 256.557 392.874C156.845 392.874 76.0391 392.783 76.0391 392.67C76.0391 392.558 156.845 392.466 256.557 392.466C356.233 392.466 437.057 392.558 437.057 392.67Z" fill="#1A2E35"/>
<path d="M121.011 369.859C121.825 366.638 119.692 363.422 117.309 361.103C114.926 358.785 112.084 356.709 110.831 353.633C108.808 348.646 111.456 342.161 108.022 338.01C106.005 335.569 102.404 334.767 100.612 332.159C99.6707 330.789 99.3568 329.102 98.9821 327.485C97.0625 319.237 92.8761 311.524 86.9987 305.419C86.6331 312.773 88.2997 320.222 91.7701 326.722C93.1656 329.336 94.8749 331.883 95.3502 334.806C96.118 339.553 93.4886 344.461 94.686 349.12C96.054 354.448 102.081 357.982 102.398 363.474C102.666 368.114 98.6317 372.211 98.9608 376.852C99.1009 378.824 100.03 380.654 101.063 382.343C104.695 388.291 110.006 392.372 118.019 392.193L127.836 392.479" fill="#FF4F5B"/>
<path d="M129.826 392.728C129.826 392.728 130.06 392.719 130.511 392.731C130.962 392.716 131.639 392.688 132.507 392.527C133.375 392.375 134.442 392.12 135.648 391.661C136.843 391.196 138.205 390.54 139.481 389.473C140.091 388.926 140.688 388.254 140.992 387.406C141.297 386.556 141.349 385.565 141.395 384.559C141.431 383.541 141.416 382.465 141.584 381.353C141.739 380.231 142.172 379.11 142.781 378.07C143.951 375.98 145.807 374.065 146.358 371.433C146.977 368.826 146.483 365.96 145.992 363.015C145.508 360.091 145.011 356.788 146.151 353.588C147.214 350.424 149.338 347.634 150.337 344.297C151.343 340.942 150.831 337.25 151.023 333.472C151.108 331.585 151.471 329.619 152.306 327.829C153.113 326.036 154.204 324.388 155.023 322.614C156.681 319.043 156.964 314.928 157.409 310.81C157.628 308.743 157.848 306.656 158.07 304.546C158.287 302.453 158.469 300.264 159.14 298.177C159.743 296.077 160.62 294.056 161.471 292.038C161.885 291.029 162.321 290.011 162.552 288.977C162.72 287.947 162.781 286.801 162.839 285.71C162.933 283.498 162.829 281.267 162.54 279.037C162.263 276.806 161.839 274.563 161.58 272.275C161.565 272.138 161.547 272.004 161.534 271.88L161.985 272.126C159.987 273.138 158.274 274.639 156.946 276.42C155.596 278.186 154.606 280.194 153.817 282.249C152.229 286.376 151.663 290.743 150.852 294.979C150.063 299.207 149.006 303.431 146.797 307.038C145.7 308.835 144.399 310.433 143.29 312.111C142.178 313.773 141.236 315.554 140.965 317.462C140.398 321.316 142.69 324.963 142.239 328.871C142.062 330.801 141.303 332.579 140.395 334.171C139.487 335.773 138.436 337.235 137.452 338.687C136.465 340.14 135.542 341.596 134.871 343.13C134.189 344.659 133.82 346.267 133.717 347.88C133.482 351.105 133.957 354.247 133.717 357.268C133.515 360.307 132.446 363.051 131.255 365.47C130.057 367.899 128.735 370.078 127.632 372.178C127.077 373.223 126.566 374.25 126.154 375.265C125.718 376.268 125.502 377.305 125.301 378.292C124.978 380.286 125.002 382.152 125.21 383.799C125.612 387.115 126.824 389.503 127.915 390.862C129.015 392.232 129.868 392.676 129.826 392.728C129.826 392.728 129.631 392.603 129.262 392.336C129.076 392.208 128.845 392.041 128.616 391.795C128.378 391.555 128.077 391.303 127.815 390.941C126.681 389.592 125.414 387.182 124.966 383.829C124.74 382.164 124.698 380.274 125.009 378.244C125.204 377.238 125.417 376.177 125.853 375.144C126.264 374.108 126.773 373.074 127.324 372.017C128.418 369.898 129.725 367.71 130.898 365.294C132.065 362.89 133.092 360.198 133.278 357.235C133.5 354.278 133.013 351.147 133.235 347.844C133.333 346.197 133.713 344.51 134.411 342.93C135.1 341.346 136.035 339.863 137.022 338.399C138.007 336.937 139.046 335.478 139.929 333.91C140.813 332.351 141.532 330.643 141.69 328.819C142.144 325.148 139.838 321.523 140.395 317.377C140.682 315.341 141.672 313.481 142.799 311.785C143.927 310.081 145.222 308.479 146.285 306.732C148.43 303.221 149.469 299.076 150.252 294.867C151.053 290.655 151.62 286.242 153.235 282.027C154.039 279.933 155.054 277.873 156.446 276.043C157.82 274.201 159.609 272.627 161.705 271.567L162.101 271.366L162.156 271.813C162.171 271.934 162.187 272.068 162.202 272.202C162.458 274.466 162.878 276.703 163.158 278.961C163.451 281.216 163.558 283.489 163.46 285.735C163.396 286.868 163.347 287.95 163.162 289.105C162.903 290.235 162.458 291.254 162.04 292.275C161.184 294.302 160.322 296.292 159.728 298.347C159.07 300.386 158.893 302.498 158.673 304.613C158.448 306.722 158.223 308.81 158.003 310.874C157.549 314.973 157.266 319.155 155.547 322.854C154.697 324.683 153.603 326.321 152.82 328.06C152.013 329.786 151.663 331.646 151.571 333.506C151.367 337.204 151.888 340.951 150.837 344.443C149.78 347.899 147.644 350.676 146.608 353.746C145.499 356.809 145.959 360.009 146.431 362.945C146.903 365.884 147.403 368.813 146.745 371.524C146.142 374.281 144.231 376.211 143.086 378.244C142.482 379.259 142.062 380.322 141.903 381.401C141.733 382.48 141.739 383.544 141.69 384.568C141.635 385.592 141.581 386.589 141.248 387.498C140.907 388.406 140.273 389.099 139.64 389.658C138.314 390.737 136.931 391.382 135.712 391.834C134.487 392.281 133.406 392.518 132.528 392.652C130.761 392.938 129.826 392.728 129.826 392.728Z" fill="#1A2E35"/>
<path d="M160.181 277.213C160.194 277.216 160.181 277.319 160.151 277.523C160.111 277.76 160.063 278.055 160.002 278.417C159.852 279.204 159.673 280.359 159.34 281.851C158.987 283.349 158.134 285.014 157.424 287.035C156.677 289.047 155.922 291.375 155.23 293.986C154.526 296.593 153.908 299.489 153.253 302.608C152.582 305.698 151.885 309.129 150.175 312.333C149.38 313.946 148.497 315.551 147.814 317.271C147.113 318.982 146.745 320.842 146.483 322.763C146.044 326.625 145.346 330.64 144.438 334.667C142.497 342.705 140.648 350.357 138.966 357.326C137.208 364.258 135.624 370.506 134.289 375.77C132.945 380.979 131.855 385.209 131.084 388.191C130.703 389.619 130.401 390.743 130.182 391.561C130.078 391.916 129.999 392.202 129.932 392.433C129.871 392.631 129.835 392.728 129.825 392.728C129.813 392.725 129.828 392.618 129.868 392.418C129.92 392.184 129.981 391.892 130.06 391.53C130.249 390.707 130.514 389.57 130.846 388.133C131.571 385.139 132.598 380.891 133.859 375.664C135.157 370.391 136.696 364.133 138.405 357.189C140.075 350.221 141.906 342.568 143.829 334.533C144.737 330.5 145.425 326.558 145.876 322.677C146.144 320.745 146.531 318.818 147.257 317.052C147.966 315.286 148.862 313.673 149.661 312.077C151.355 308.932 152.049 305.601 152.747 302.498C153.42 299.389 154.069 296.484 154.804 293.87C155.526 291.254 156.315 288.923 157.095 286.914C157.847 284.884 158.728 283.24 159.103 281.787C159.465 280.331 159.691 279.164 159.877 278.392C159.965 278.034 160.032 277.745 160.09 277.511C160.139 277.313 160.172 277.213 160.181 277.213Z" fill="#1A2E35"/>
<path d="M131.56 392.746C137.949 388.911 139.722 377.362 137.007 370.433C134.296 363.501 129.576 357.183 128.814 349.783C128.226 344.097 130.061 338.244 128.702 332.688C126.864 325.191 119.482 319.417 119.524 311.697C119.546 307.37 121.992 303.282 121.773 298.955C121.499 293.651 117.395 289.464 114.838 284.805C110.926 277.672 110.625 269.214 109.253 261.2C107.885 253.186 104.772 244.613 97.6205 240.711C96.6059 247.528 94.8357 252.202 95.4542 261.425C95.6766 264.738 99.5705 271.059 100.137 278.316C100.475 282.656 100.716 287.002 101.009 291.342C101.292 295.569 101.591 299.872 103.132 303.817C104.311 306.841 106.197 309.582 107.081 312.706C108.742 318.584 106.639 324.972 107.986 330.929C109.129 335.973 112.657 340.301 113.403 345.422C114.451 352.612 109.823 360.119 112.255 366.969C113.458 370.369 116.283 373.089 117.102 376.603C117.736 379.332 117.078 382.225 117.654 384.963C118.58 389.376 127.047 392.758 131.56 392.46" fill="#FF4F5B"/>
<path d="M99.4265 247.461C99.4357 247.458 99.4662 247.585 99.518 247.834C99.5728 248.117 99.6429 248.482 99.7312 248.944C99.9232 249.913 100.14 251.369 100.514 253.201C100.91 255.031 101.922 257.122 102.751 259.675C103.619 262.209 104.481 265.142 105.252 268.43C106.032 271.712 106.693 275.35 107.379 279.246C108.092 283.136 108.796 287.321 110.752 291.317C111.663 293.341 112.696 295.39 113.491 297.611C114.304 299.833 114.691 302.237 114.929 304.65C115.298 309.491 115.965 314.433 116.897 319.49C118.902 329.564 120.81 339.164 122.546 347.902C124.341 356.615 125.956 364.465 127.318 371.075C128.646 377.645 129.725 382.976 130.48 386.707C130.837 388.528 131.114 389.953 131.309 390.965C131.394 391.427 131.458 391.795 131.51 392.078C131.553 392.327 131.568 392.457 131.559 392.46C131.547 392.46 131.51 392.336 131.446 392.09C131.382 391.81 131.294 391.448 131.187 390.993C130.962 389.984 130.645 388.564 130.243 386.759C129.441 383.036 128.296 377.718 126.885 371.166C125.486 364.565 123.826 356.721 121.98 348.017C120.228 339.28 118.305 329.676 116.282 319.599C115.35 314.548 114.676 309.534 114.32 304.711C114.085 302.31 113.713 299.976 112.924 297.809C112.156 295.633 111.136 293.594 110.225 291.554C108.259 287.497 107.556 283.212 106.867 279.337C106.203 275.432 105.569 271.804 104.82 268.527C104.082 265.248 103.25 262.322 102.419 259.784C101.629 257.24 100.645 255.131 100.277 253.256C99.9323 251.39 99.7587 249.947 99.6063 248.962C99.5454 248.5 99.4936 248.129 99.457 247.847C99.4265 247.591 99.4144 247.464 99.4265 247.461Z" fill="#1A2E35"/>
<path d="M340.133 349.929C342.108 350.783 343.561 352.603 344.289 354.621C345.018 356.642 345.085 358.848 344.841 360.979C344.372 365.106 342.022 369.272 339.491 372.567C336.008 369.534 335.207 364.246 334.969 361.538C334.594 357.256 336.52 349.291 340.133 349.929Z" fill="#FF4F5B"/>
<path d="M343.54 379.377C342.982 377.046 343.954 374.487 345.749 372.892C347.543 371.296 350.051 370.622 352.449 370.804C353.555 370.889 354.752 371.211 355.389 372.123C355.98 372.974 355.916 374.159 355.435 375.08C354.953 375.998 354.119 376.685 353.241 377.235C350.222 379.125 346.952 380.398 343.54 379.377Z" fill="#FF4F5B"/>
<path d="M339.072 392.029C339.051 392.023 339.1 391.722 339.197 391.181C339.307 390.585 339.447 389.813 339.618 388.89C340.002 386.975 340.498 384.231 341.988 381.571C343.46 378.915 345.52 376.958 347.253 375.989C348.115 375.49 348.868 375.195 349.401 375.041C349.663 374.952 349.88 374.919 350.02 374.886C350.163 374.855 350.239 374.843 350.242 374.852C350.267 374.922 349.033 375.141 347.366 376.171C345.69 377.168 343.701 379.107 342.253 381.717C340.791 384.325 340.264 387.03 339.828 388.932C339.615 389.892 339.444 390.67 339.31 391.205C339.179 391.74 339.091 392.032 339.072 392.029Z" fill="#1A2E35"/>
<path d="M339.204 356.122C339.213 356.122 339.228 356.25 339.247 356.493C339.262 356.77 339.283 357.122 339.311 357.557C339.359 358.481 339.414 359.818 339.466 361.471C339.573 364.778 339.658 369.348 339.637 374.393C339.615 379.444 339.49 384.012 339.353 387.318C339.286 388.969 339.219 390.306 339.161 391.23C339.134 391.664 339.109 392.017 339.091 392.29C339.07 392.536 339.055 392.661 339.046 392.661C339.036 392.661 339.03 392.533 339.03 392.29C339.033 392.014 339.039 391.661 339.046 391.224C339.07 390.263 339.103 388.935 339.14 387.309C339.222 384.006 339.314 379.438 339.335 374.393C339.356 369.348 339.308 364.781 339.253 361.477C339.228 359.851 339.207 358.523 339.192 357.56C339.189 357.125 339.186 356.77 339.186 356.496C339.186 356.253 339.192 356.125 339.204 356.122Z" fill="#1A2E35"/>
<path d="M337.513 381.891C336.721 376.897 333.348 372.384 328.778 370.199C327.614 369.643 326.093 369.282 325.136 370.145C324.177 371.011 324.393 372.561 324.859 373.764C326.812 378.76 332.053 382.292 337.431 382.228" fill="#FF4F5B"/>
<path d="M329.341 374.114C329.351 374.095 329.613 374.211 330.082 374.436C330.316 374.545 330.603 374.682 330.917 374.879C331.231 375.074 331.608 375.265 331.98 375.545C332.361 375.812 332.784 376.098 333.196 376.457C333.628 376.794 334.049 377.201 334.491 377.633C335.35 378.514 336.212 379.566 336.95 380.784C337.678 382.009 338.205 383.264 338.57 384.44C338.738 385.03 338.896 385.595 338.982 386.136C339.101 386.671 339.143 387.179 339.189 387.64C339.253 388.102 339.232 388.525 339.247 388.89C339.265 389.26 339.241 389.576 339.219 389.835C339.183 390.351 339.149 390.634 339.131 390.634C339.061 390.631 339.18 389.488 338.979 387.662C338.918 387.209 338.863 386.707 338.735 386.185C338.644 385.653 338.476 385.1 338.305 384.519C337.931 383.371 337.407 382.14 336.691 380.939C335.968 379.742 335.124 378.703 334.293 377.824C333.863 377.396 333.455 376.989 333.034 376.648C332.635 376.283 332.224 375.995 331.858 375.718C330.362 374.648 329.311 374.171 329.341 374.114Z" fill="#1A2E35"/>
<path d="M262.078 392.67L150.242 392.154C136.791 392.093 125.935 381.17 125.992 367.753L127.178 88.0983C127.236 74.6748 138.195 63.8405 151.653 63.9013L263.486 64.418C276.938 64.4787 287.794 75.4011 287.736 88.8186L286.551 368.473C286.493 381.897 275.536 392.731 262.078 392.67Z" fill="#375A64"/>
<path d="M263.328 74.07L241.646 73.9697C238.736 73.9545 236.369 76.404 236.357 79.4339L236.339 83.3574C236.326 86.3903 233.959 88.8368 231.052 88.8246L188.786 88.6271C185.879 88.6149 183.533 86.1472 183.545 83.1142L183.561 79.1908C183.573 76.1609 181.227 73.6901 178.32 73.6779L170.694 73.6415L151.715 73.5533C142.291 73.5108 134.616 81.0993 134.576 90.4992L133.418 363.465C133.379 372.861 140.98 380.511 150.401 380.553L262.015 381.067C271.438 381.109 279.114 373.524 279.153 364.121L280.311 91.1586C280.351 81.7618 272.749 74.1125 263.328 74.07Z" fill="#FAFAFA"/>
<path d="M207.874 281.285C207.987 281.285 208.078 288.145 208.078 296.605C208.078 305.069 207.987 311.925 207.874 311.925C207.761 311.925 207.673 305.069 207.673 296.605C207.673 288.145 207.761 281.285 207.874 281.285Z" fill="#FF4F5B"/>
<path d="M203.874 284.653C203.987 284.653 204.075 289.889 204.075 296.347C204.075 302.808 203.987 308.044 203.874 308.044C203.761 308.044 203.67 302.808 203.67 296.347C203.67 289.889 203.761 284.653 203.874 284.653Z" fill="#FF4F5B"/>
<path d="M199.367 287.993C199.48 287.993 199.568 291.785 199.568 296.463C199.568 301.143 199.48 304.932 199.367 304.932C199.254 304.932 199.163 301.143 199.163 296.463C199.163 291.785 199.254 287.993 199.367 287.993Z" fill="#FF4F5B"/>
<path d="M195.44 290.874C195.553 290.874 195.642 292.989 195.642 295.599C195.642 298.21 195.553 300.325 195.44 300.325C195.328 300.325 195.236 298.21 195.236 295.599C195.236 292.989 195.328 290.874 195.44 290.874Z" fill="#FF4F5B"/>
<path d="M191.973 293.18C192.085 293.18 192.177 294.341 192.177 295.773C192.177 297.204 192.085 298.365 191.973 298.365C191.86 298.365 191.769 297.204 191.769 295.773C191.769 294.341 191.86 293.18 191.973 293.18Z" fill="#FF4F5B"/>
<path d="M188.045 290.415C188.158 290.415 188.249 292.53 188.249 295.137C188.249 297.748 188.158 299.863 188.045 299.863C187.932 299.863 187.841 297.748 187.841 295.137C187.841 292.53 187.932 290.415 188.045 290.415Z" fill="#FF4F5B"/>
<path d="M184.347 286.61C184.459 286.61 184.551 290.582 184.551 295.484C184.551 300.383 184.459 304.358 184.347 304.358C184.234 304.358 184.146 300.383 184.146 295.484C184.146 290.582 184.234 286.61 184.347 286.61Z" fill="#FF4F5B"/>
<path d="M231.228 287.993C231.341 287.993 231.433 291.785 231.433 296.463C231.433 301.143 231.341 304.932 231.228 304.932C231.119 304.932 231.027 301.143 231.027 296.463C231.027 291.785 231.119 287.993 231.228 287.993Z" fill="#FF4F5B"/>
<path d="M227.301 290.874C227.414 290.874 227.505 292.989 227.505 295.599C227.505 298.21 227.414 300.325 227.301 300.325C227.188 300.325 227.097 298.21 227.097 295.599C227.097 292.989 227.188 290.874 227.301 290.874Z" fill="#FF4F5B"/>
<path d="M223.837 293.18C223.947 293.18 224.038 294.341 224.038 295.773C224.038 297.204 223.947 298.365 223.837 298.365C223.724 298.365 223.633 297.204 223.633 295.773C223.633 294.341 223.724 293.18 223.837 293.18Z" fill="#FF4F5B"/>
<path d="M219.906 289.032C220.019 289.032 220.11 291.767 220.11 295.137C220.11 298.514 220.019 301.246 219.906 301.246C219.793 301.246 219.705 298.514 219.705 295.137C219.705 291.767 219.793 289.032 219.906 289.032Z" fill="#FF4F5B"/>
<path d="M216.211 286.61C216.324 286.61 216.415 290.582 216.415 295.484C216.415 300.383 216.324 304.358 216.211 304.358C216.098 304.358 216.007 300.383 216.007 295.484C216.007 290.582 216.098 286.61 216.211 286.61Z" fill="#FF4F5B"/>
<path d="M211.704 284.768C211.817 284.768 211.908 289.822 211.908 296.058C211.908 302.298 211.817 307.351 211.704 307.351C211.591 307.351 211.5 302.298 211.5 296.058C211.5 289.822 211.591 284.768 211.704 284.768Z" fill="#FF4F5B"/>
<path d="M235.431 299.863C235.318 299.863 235.227 297.748 235.227 295.141C235.227 292.527 235.318 290.412 235.431 290.412C235.54 290.412 235.632 292.527 235.632 295.141C235.632 297.748 235.54 299.863 235.431 299.863Z" fill="#FF4F5B"/>
<path d="M238.894 297.56C238.782 297.56 238.693 296.396 238.693 294.964C238.693 293.533 238.782 292.372 238.894 292.372C239.007 292.372 239.099 293.533 239.099 294.964C239.099 296.396 239.007 297.56 238.894 297.56Z" fill="#FF4F5B"/>
<path d="M180.73 290.415C180.842 290.415 180.931 292.53 180.931 295.137C180.931 297.748 180.842 299.863 180.73 299.863C180.617 299.863 180.525 297.748 180.525 295.137C180.525 292.53 180.617 290.415 180.73 290.415Z" fill="#FF4F5B"/>
<path d="M177.263 292.718C177.375 292.718 177.467 293.879 177.467 295.311C177.467 296.742 177.375 297.903 177.263 297.903C177.153 297.903 177.062 296.742 177.062 295.311C177.062 293.879 177.153 292.718 177.263 292.718Z" fill="#FF4F5B"/>
<path d="M173.804 290.415C173.916 290.415 174.008 292.53 174.008 295.137C174.008 297.748 173.916 299.863 173.804 299.863C173.691 299.863 173.6 297.748 173.6 295.137C173.6 292.53 173.691 290.415 173.804 290.415Z" fill="#FF4F5B"/>
<path d="M170.108 286.61C170.218 286.61 170.31 290.582 170.31 295.484C170.31 300.383 170.218 304.358 170.108 304.358C169.996 304.358 169.904 300.383 169.904 295.484C169.904 290.582 169.996 286.61 170.108 286.61Z" fill="#FF4F5B"/>
<path d="M166.488 290.415C166.601 290.415 166.692 292.53 166.692 295.137C166.692 297.748 166.601 299.863 166.488 299.863C166.376 299.863 166.284 297.748 166.284 295.137C166.284 292.53 166.376 290.415 166.488 290.415Z" fill="#FF4F5B"/>
<path d="M163.021 292.718C163.134 292.718 163.226 293.879 163.226 295.311C163.226 296.742 163.134 297.903 163.021 297.903C162.912 297.903 162.82 296.742 162.82 295.311C162.82 293.879 162.912 292.718 163.021 292.718Z" fill="#FF4F5B"/>
<path d="M249.882 290.415C249.994 290.415 250.086 292.53 250.086 295.137C250.086 297.748 249.994 299.863 249.882 299.863C249.769 299.863 249.681 297.748 249.681 295.137C249.681 292.53 249.769 290.415 249.882 290.415Z" fill="#FF4F5B"/>
<path d="M246.186 286.61C246.298 286.61 246.39 290.582 246.39 295.484C246.39 300.383 246.298 304.358 246.186 304.358C246.073 304.358 245.981 300.383 245.981 295.484C245.981 290.582 246.073 286.61 246.186 286.61Z" fill="#FF4F5B"/>
<path d="M242.566 290.415C242.679 290.415 242.771 292.53 242.771 295.137C242.771 297.748 242.679 299.863 242.566 299.863C242.454 299.863 242.362 297.748 242.362 295.137C242.362 292.53 242.454 290.415 242.566 290.415Z" fill="#FF4F5B"/>
<path d="M239.102 292.718C239.211 292.718 239.303 293.879 239.303 295.311C239.303 296.742 239.211 297.903 239.102 297.903C238.989 297.903 238.897 296.742 238.897 295.311C238.897 293.879 238.989 292.718 239.102 292.718Z" fill="#FF4F5B"/>
<path d="M254.397 292.718C254.51 292.718 254.602 293.879 254.602 295.311C254.602 296.742 254.51 297.903 254.397 297.903C254.285 297.903 254.196 296.742 254.196 295.311C254.196 293.879 254.285 292.718 254.397 292.718Z" fill="#FF4F5B"/>
<path d="M260.573 182.847C260.573 182.847 260.555 182.568 260.53 182.017C260.497 181.47 260.515 180.65 260.417 179.583C260.286 177.447 259.924 174.292 258.946 170.344C257.931 166.415 256.234 161.68 253.257 156.72C250.287 151.779 246.03 146.609 240.229 142.203C237.34 139.993 234.059 138.012 230.442 136.374C226.826 134.739 222.877 133.426 218.663 132.669C214.458 131.897 210.01 131.593 205.464 131.949C203.188 132.083 200.9 132.453 198.602 132.906C196.311 133.396 194.026 134.052 191.762 134.854C182.731 138.115 174.154 144.208 167.972 152.654C166.409 154.748 165.038 157.006 163.801 159.352C162.564 161.701 161.513 164.172 160.672 166.734C158.944 171.84 158.085 177.31 158.055 182.841C158.085 188.375 158.941 193.842 160.669 198.954C161.51 201.516 162.558 203.987 163.798 206.336C165.035 208.685 166.403 210.943 167.969 213.037C174.151 221.486 182.731 227.579 191.762 230.843C194.026 231.645 196.314 232.299 198.606 232.788C200.903 233.244 203.191 233.615 205.464 233.748C210.01 234.104 214.461 233.797 218.666 233.025C222.88 232.268 226.829 230.955 230.445 229.32C234.062 227.682 237.343 225.701 240.232 223.492C246.033 219.082 250.29 213.912 253.26 208.974C256.234 204.014 257.931 199.276 258.946 195.35C259.927 191.402 260.286 188.248 260.417 186.111C260.515 185.044 260.497 184.227 260.53 183.677C260.555 183.13 260.573 182.847 260.573 182.847C260.573 182.847 260.603 183.975 260.5 186.117C260.393 188.257 260.058 191.42 259.098 195.386C258.105 199.334 256.423 204.096 253.455 209.089C250.491 214.064 246.228 219.27 240.406 223.719C237.508 225.947 234.211 227.95 230.576 229.606C226.941 231.259 222.968 232.587 218.73 233.356C214.498 234.14 210.016 234.453 205.44 234.104C203.148 233.97 200.842 233.603 198.529 233.147C196.22 232.657 193.916 232.001 191.634 231.193C182.533 227.916 173.883 221.784 167.649 213.271C166.071 211.165 164.688 208.886 163.442 206.521C162.192 204.154 161.132 201.662 160.285 199.082C158.545 193.931 157.677 188.418 157.649 182.841C157.68 177.264 158.545 171.755 160.291 166.606C161.138 164.026 162.195 161.534 163.445 159.17C164.691 156.802 166.074 154.526 167.652 152.42C173.886 143.911 182.533 137.781 191.634 134.502C193.916 133.696 196.22 133.04 198.529 132.548C200.842 132.095 203.145 131.727 205.437 131.593C210.016 131.241 214.495 131.554 218.727 132.338C222.965 133.107 226.938 134.435 230.57 136.088C234.208 137.744 237.505 139.747 240.403 141.975C246.225 146.421 250.488 151.63 253.452 156.605C256.423 161.598 258.105 166.36 259.098 170.308C260.058 174.274 260.393 177.438 260.5 179.577C260.603 181.72 260.573 182.847 260.573 182.847Z" fill="#FF4F5B"/>
<path d="M250.872 184.13C250.872 207.421 231.941 226.303 208.59 226.303C185.239 226.303 166.309 207.421 166.309 184.13C166.309 160.838 185.239 141.957 208.59 141.957C231.941 141.957 250.872 160.838 250.872 184.13Z" fill="#FF4F5B"/>
<path d="M208.938 189.019H208.115C205.257 189.019 202.938 186.707 202.938 183.856V176.489C202.938 173.636 205.257 171.323 208.115 171.323H208.938C211.796 171.323 214.114 173.636 214.114 176.489V183.856C214.114 186.707 211.796 189.019 208.938 189.019Z" fill="#FAFAFA"/>
<path d="M208.526 192.405C203.983 192.405 200.287 188.719 200.287 184.187C200.287 183.972 200.461 183.798 200.677 183.798C200.89 183.798 201.067 183.972 201.067 184.187C201.067 188.29 204.413 191.627 208.526 191.627C212.916 191.621 215.985 188.564 215.985 184.187C215.985 183.972 216.161 183.798 216.375 183.798C216.591 183.798 216.765 183.972 216.765 184.187C216.765 189.02 213.376 192.399 208.526 192.405Z" fill="#FAFAFA"/>
<path d="M208.137 196.04H208.917V192.01H208.137V196.04Z" fill="white"/>
<path d="M213.404 196.252H203.648C203.431 196.252 203.258 196.079 203.258 195.863C203.258 195.648 203.431 195.474 203.648 195.474H213.404C213.62 195.474 213.794 195.648 213.794 195.863C213.794 196.079 213.62 196.252 213.404 196.252Z" fill="white"/>
<path d="M200.352 174.548C200.3 174.648 199.709 174.441 199.005 174.143C198.301 173.845 197.743 173.563 197.78 173.456C197.814 173.35 198.444 173.463 199.163 173.77C199.882 174.076 200.403 174.447 200.352 174.548Z" fill="white"/>
<path d="M203.496 170.381C203.405 170.445 202.899 169.913 202.363 169.187C201.827 168.463 201.467 167.822 201.555 167.755C201.647 167.688 202.156 168.223 202.689 168.946C203.225 169.673 203.585 170.314 203.496 170.381Z" fill="white"/>
<path d="M208.554 168.883C208.441 168.889 208.356 168.205 208.368 167.354C208.374 166.503 208.475 165.819 208.588 165.828C208.697 165.838 208.783 166.524 208.774 167.357C208.764 168.196 208.664 168.877 208.554 168.883Z" fill="white"/>
<path d="M215.044 167.792C215.138 167.846 214.901 168.424 214.44 169.032C213.983 169.639 213.493 170.028 213.414 169.952C213.331 169.873 213.673 169.375 214.117 168.788C214.559 168.199 214.946 167.734 215.044 167.792Z" fill="white"/>
<path d="M219.404 173.055C219.458 173.153 218.937 173.554 218.243 173.949C217.548 174.344 216.939 174.584 216.884 174.487C216.829 174.389 217.347 173.991 218.042 173.596C218.736 173.201 219.346 172.958 219.404 173.055Z" fill="white"/>
<path d="M174.642 261.851H173.42V264.103H174.642C175.559 264.103 176.022 263.677 176.022 262.975C176.022 262.264 175.559 261.851 174.642 261.851ZM176.049 267.096L174.8 265.294H173.42V267.096H171.921V260.632H174.727C176.458 260.632 177.542 261.525 177.542 262.975C177.542 263.945 177.049 264.656 176.208 265.017L177.661 267.096" fill="#1A2E35"/>
<path d="M179.691 264.176H182.147C182.043 263.549 181.571 263.142 180.925 263.142C180.267 263.142 179.795 263.54 179.691 264.176ZM183.478 265.017H179.709C179.849 265.634 180.376 266.014 181.135 266.014C181.665 266.014 182.043 265.856 182.387 265.534L183.155 266.367C182.692 266.892 181.997 267.169 181.099 267.169C179.377 267.169 178.256 266.087 178.256 264.61C178.256 263.124 179.395 262.054 180.913 262.054C182.378 262.054 183.506 263.03 183.506 264.628C183.506 264.741 183.49 264.899 183.478 265.017Z" fill="#1A2E35"/>
<path d="M187.295 265.525V265.017H186.305C185.629 265.017 185.415 265.267 185.415 265.601C185.415 265.959 185.72 266.2 186.229 266.2C186.71 266.2 187.128 265.978 187.295 265.525ZM188.74 264.261V267.096H187.387V266.476C187.119 266.929 186.601 267.169 185.869 267.169C184.702 267.169 184.008 266.522 184.008 265.665C184.008 264.786 184.629 264.179 186.147 264.179H187.295C187.295 263.559 186.924 263.197 186.147 263.197C185.62 263.197 185.071 263.373 184.712 263.662L184.194 262.653C184.739 262.264 185.543 262.054 186.342 262.054C187.859 262.054 188.74 262.756 188.74 264.261Z" fill="#1A2E35"/>
<path d="M193.762 264.61C193.762 263.753 193.204 263.233 192.491 263.233C191.769 263.233 191.214 263.753 191.214 264.61C191.214 265.47 191.769 265.987 192.491 265.987C193.204 265.987 193.762 265.47 193.762 264.61ZM195.175 260.243V267.096H193.798V266.522C193.436 266.956 192.909 267.169 192.241 267.169C190.834 267.169 189.752 266.172 189.752 264.61C189.752 263.051 190.834 262.054 192.241 262.054C192.854 262.054 193.372 262.246 193.731 262.653V260.243" fill="#1A2E35"/>
<path d="M201.455 262.127L199.206 267.4C198.725 268.6 198.039 268.962 197.14 268.962C196.631 268.962 196.077 268.795 195.754 268.509L196.281 267.482C196.503 267.677 196.808 267.798 197.095 267.798C197.494 267.798 197.716 267.622 197.911 267.178L197.929 267.133L195.769 262.127H197.262L198.661 265.498L200.068 262.127" fill="#1A2E35"/>
<path d="M207.884 266.856C207.588 267.069 207.152 267.169 206.708 267.169C205.531 267.169 204.846 266.57 204.846 265.388V263.346H204.078V262.237H204.846V261.027H206.29V262.237H207.533V263.346H206.29V265.37C206.29 265.792 206.525 266.023 206.912 266.023C207.125 266.023 207.338 265.959 207.494 265.841" fill="#1A2E35"/>
<path d="M212.183 264.61C212.183 263.753 211.637 263.233 210.912 263.233C210.19 263.233 209.635 263.753 209.635 264.61C209.635 265.47 210.19 265.987 210.912 265.987C211.637 265.987 212.183 265.47 212.183 264.61ZM208.173 264.61C208.173 263.115 209.331 262.054 210.912 262.054C212.496 262.054 213.645 263.115 213.645 264.61C213.645 266.108 212.496 267.169 210.912 267.169C209.331 267.169 208.173 266.108 208.173 264.61Z" fill="#1A2E35"/>
<path d="M217.231 267.096H218.676V260.243H217.231V267.096Z" fill="#1A2E35"/>
<path d="M220.016 262.127H221.464V267.096H220.016V262.127ZM219.843 260.632C219.843 260.179 220.202 259.827 220.742 259.827C221.278 259.827 221.637 260.161 221.637 260.602C221.637 261.082 221.278 261.434 220.742 261.434C220.202 261.434 219.843 261.082 219.843 260.632Z" fill="#1A2E35"/>
<path d="M222.322 266.634L222.804 265.601C223.249 265.887 223.925 266.081 224.537 266.081C225.205 266.081 225.454 265.905 225.454 265.628C225.454 264.814 222.444 265.646 222.444 263.662C222.444 262.717 223.297 262.054 224.751 262.054C225.436 262.054 226.195 262.209 226.667 262.486L226.186 263.513C225.695 263.233 225.205 263.142 224.751 263.142C224.102 263.142 223.824 263.346 223.824 263.604C223.824 264.455 226.832 263.632 226.832 265.589C226.832 266.516 225.972 267.169 224.483 267.169C223.639 267.169 222.788 266.938 222.322 266.634Z" fill="#1A2E35"/>
<path d="M230.936 266.856C230.641 267.069 230.205 267.169 229.76 267.169C228.584 267.169 227.899 266.57 227.899 265.388V263.346H227.131V262.237H227.899V261.027H229.343V262.237H230.586V263.346H229.343V265.37C229.343 265.792 229.577 266.023 229.964 266.023C230.178 266.023 230.391 265.959 230.546 265.841" fill="#1A2E35"/>
<path d="M232.661 264.176H235.113C235.013 263.549 234.541 263.142 233.892 263.142C233.233 263.142 232.761 263.54 232.661 264.176ZM236.448 265.017H232.679C232.816 265.634 233.346 266.014 234.105 266.014C234.632 266.014 235.013 265.856 235.354 265.534L236.122 266.367C235.662 266.892 234.964 267.169 234.068 267.169C232.347 267.169 231.226 266.087 231.226 264.61C231.226 263.124 232.362 262.054 233.882 262.054C235.345 262.054 236.475 263.03 236.475 264.628C236.475 264.741 236.457 264.899 236.448 265.017Z" fill="#1A2E35"/>
<path d="M242.533 264.252V267.096H241.089V264.473C241.089 263.668 240.717 263.3 240.08 263.3C239.385 263.3 238.886 263.723 238.886 264.637V267.096H237.441V262.127H238.819V262.708C239.209 262.285 239.791 262.054 240.467 262.054C241.643 262.054 242.533 262.735 242.533 264.252Z" fill="#1A2E35"/>
<path d="M195.294 343.358C195.294 341.842 196.458 340.733 198.024 340.733C198.816 340.733 199.508 341.006 199.98 341.532L199.502 341.994C199.106 341.577 198.618 341.386 198.051 341.386C196.891 341.386 196.031 342.222 196.031 343.358C196.031 344.498 196.891 345.334 198.051 345.334C198.618 345.334 199.106 345.133 199.502 344.717L199.98 345.179C199.508 345.707 198.816 345.987 198.018 345.987C196.458 345.987 195.294 344.878 195.294 343.358Z" fill="#1A2E35"/>
<path d="M203.262 344.738V344.197H202.171C201.473 344.197 201.275 344.468 201.275 344.796C201.275 345.185 201.598 345.428 202.134 345.428C202.664 345.428 203.082 345.185 203.262 344.738ZM203.968 343.58V345.926H203.298V345.413C203.06 345.765 202.628 345.972 202.018 345.972C201.135 345.972 200.574 345.501 200.574 344.826C200.574 344.203 200.979 343.69 202.14 343.69H203.262V343.55C203.262 342.957 202.914 342.611 202.216 342.611C201.753 342.611 201.281 342.772 200.979 343.03L200.687 342.501C201.089 342.179 201.671 342.003 202.296 342.003C203.362 342.003 203.968 342.516 203.968 343.58Z" fill="#1A2E35"/>
<path d="M208.977 343.69V345.926H208.27V343.772C208.27 343.009 207.887 342.632 207.219 342.632C206.467 342.632 205.982 343.082 205.982 343.924V345.926H205.275V342.039H205.952V342.626C206.241 342.231 206.741 342.003 207.356 342.003C208.307 342.003 208.977 342.544 208.977 343.69Z" fill="#1A2E35"/>
<path d="M209.946 343.984C209.946 342.823 210.809 342.003 212.006 342.003C212.704 342.003 213.286 342.289 213.596 342.833L213.057 343.176C212.807 342.796 212.426 342.62 212 342.62C211.235 342.62 210.662 343.155 210.662 343.984C210.662 344.826 211.235 345.355 212 345.355C212.426 345.355 212.807 345.179 213.057 344.799L213.596 345.133C213.286 345.677 212.704 345.972 212.006 345.972C210.809 345.972 209.946 345.142 209.946 343.984Z" fill="#1A2E35"/>
<path d="M214.794 343.711H217.295C217.222 343.057 216.729 342.595 216.043 342.595C215.367 342.595 214.867 343.051 214.794 343.711ZM217.956 344.218H214.794C214.882 344.899 215.434 345.355 216.208 345.355C216.662 345.355 217.045 345.2 217.332 344.887L217.722 345.34C217.368 345.75 216.832 345.972 216.183 345.972C214.928 345.972 214.087 345.142 214.087 343.984C214.087 342.829 214.919 342.003 216.043 342.003C217.17 342.003 217.972 342.808 217.972 344.006C217.972 344.063 217.963 344.151 217.956 344.218Z" fill="#1A2E35"/>
<path d="M218.949 345.926H219.656V340.483H218.949V345.926Z" fill="#1A2E35"/>
<path d="M243.218 356.527C243.218 356.527 243.413 356.502 243.788 356.478C243.974 356.463 244.208 356.454 244.486 356.426C244.76 356.381 245.08 356.329 245.439 356.271C246.856 355.995 248.998 355.296 251.073 353.436C252.097 352.512 253.081 351.29 253.803 349.774C254.525 348.26 254.997 346.452 254.955 344.486C254.952 343.495 254.97 342.474 254.854 341.438C254.732 340.398 254.443 339.356 254.031 338.326C253.581 337.311 252.999 336.323 252.261 335.411C251.499 334.521 250.598 333.709 249.568 333.038C247.496 331.676 244.894 331.047 242.185 331.178C239.461 331.181 236.631 331.187 233.697 331.19C227.831 331.196 221.564 331.199 214.971 331.208C201.778 331.211 187.277 331.217 172.058 331.223C170.184 331.232 168.335 331.691 166.693 332.533C165.041 333.369 163.646 334.636 162.576 336.101C161.498 337.569 160.828 339.298 160.556 341.064C160.471 341.504 160.441 341.951 160.428 342.395C160.395 342.836 160.407 343.294 160.404 343.744C160.407 344.653 160.395 345.537 160.541 346.406C160.797 348.145 161.443 349.81 162.418 351.242C163.399 352.664 164.685 353.855 166.147 354.718C167.607 355.581 169.24 356.119 170.894 356.277L172.138 356.338H173.393C174.228 356.338 175.056 356.341 175.882 356.341C189.072 356.356 200.949 356.372 210.927 356.384C220.897 356.411 228.965 356.432 234.556 356.448C237.338 356.466 239.498 356.478 240.979 356.487C241.704 356.496 242.261 356.502 242.651 356.505C243.026 356.511 243.218 356.527 243.218 356.527C243.218 356.527 243.026 356.542 242.651 356.548C242.261 356.551 241.704 356.56 240.979 356.569C239.498 356.578 237.338 356.59 234.556 356.606C228.965 356.621 220.897 356.642 210.927 356.669C200.949 356.682 189.072 356.697 175.882 356.715C175.056 356.715 174.228 356.715 173.393 356.715L172.138 356.718L170.858 356.657C169.149 356.493 167.458 355.94 165.949 355.053C164.438 354.162 163.11 352.934 162.092 351.463C161.087 349.986 160.413 348.263 160.148 346.464C159.999 345.565 160.008 344.641 160.005 343.744C160.008 343.291 159.996 342.845 160.026 342.38C160.041 341.921 160.072 341.459 160.16 341.003C160.441 339.177 161.135 337.387 162.25 335.867C163.353 334.347 164.798 333.038 166.504 332.175C168.204 331.302 170.121 330.828 172.058 330.819C187.277 330.822 201.778 330.831 214.971 330.834C221.564 330.84 227.831 330.846 233.697 330.853C236.631 330.856 239.461 330.862 242.185 330.865C244.912 330.74 247.621 331.394 249.723 332.798C250.777 333.49 251.698 334.323 252.471 335.238C253.221 336.174 253.815 337.186 254.269 338.225C254.683 339.28 254.976 340.35 255.095 341.41C255.208 342.474 255.186 343.501 255.18 344.486C255.214 346.482 254.72 348.327 253.98 349.859C253.233 351.394 252.225 352.624 251.177 353.551C249.062 355.42 246.887 356.098 245.454 356.35C245.092 356.402 244.769 356.448 244.492 356.487C244.211 356.511 243.977 356.511 243.788 356.52C243.413 356.533 243.218 356.527 243.218 356.527Z" fill="#1A2E35"/>
<path d="M268.114 104.227C268.114 104.345 265.415 104.445 262.085 104.445C258.751 104.445 256.052 104.345 256.052 104.227C256.052 104.105 258.751 104.008 262.085 104.008C265.415 104.008 268.114 104.105 268.114 104.227Z" fill="#1A2E35"/>
<path d="M268.114 101.084C268.114 101.203 265.415 101.3 262.085 101.3C258.751 101.3 256.052 101.203 256.052 101.084C256.052 100.963 258.751 100.865 262.085 100.865C265.415 100.865 268.114 100.963 268.114 101.084Z" fill="#1A2E35"/>
<path d="M268.114 97.9388C268.114 98.0604 265.415 98.1576 262.085 98.1576C258.751 98.1576 256.052 98.0604 256.052 97.9388C256.052 97.8203 258.751 97.723 262.085 97.723C265.415 97.723 268.114 97.8203 268.114 97.9388Z" fill="#1A2E35"/>
<path d="M147.873 106.254C147.876 106.251 147.964 106.241 148.132 106.238C148.336 106.229 148.573 106.223 148.854 106.214C149.533 106.196 150.423 106.175 151.517 106.15L151.441 106.226C151.431 105.637 151.422 104.992 151.41 104.3C151.416 103.941 151.38 103.604 151.416 103.19C151.486 102.78 151.855 102.412 152.309 102.37C152.738 102.364 153.116 102.342 153.579 102.367C154.061 102.424 154.469 102.883 154.454 103.391C154.463 104.287 154.475 105.226 154.484 106.199L154.362 106.077C155.441 106.068 156.562 106.056 157.72 106.044L157.592 106.175C157.58 104.825 157.571 103.43 157.556 101.999C157.553 101.643 157.549 101.288 157.546 100.935C157.546 100.607 157.345 100.388 157.074 100.145C156.578 99.6558 156.087 99.1726 155.606 98.7016C155.124 98.2275 154.652 97.7625 154.189 97.3066C153.96 97.0787 153.729 96.8538 153.503 96.6289C153.269 96.404 153.083 96.17 152.809 96.1123C152.543 96.0424 152.251 96.1001 152.038 96.2582C151.837 96.4314 151.617 96.6745 151.413 96.8721C150.999 97.2884 150.597 97.6926 150.207 98.0846C149.448 98.8718 148.659 99.589 148.086 100.267C147.842 100.64 147.934 101.099 147.918 101.519C147.915 101.932 147.915 102.327 147.915 102.698C147.909 103.421 147.906 104.056 147.903 104.6C147.897 105.087 147.891 105.488 147.888 105.816C147.885 106.096 147.879 106.248 147.873 106.254C147.867 106.26 147.857 106.123 147.848 105.852C147.839 105.527 147.83 105.132 147.815 104.652C147.803 104.108 147.787 103.467 147.772 102.737C147.766 102.358 147.757 101.956 147.751 101.534C147.748 101.321 147.742 101.099 147.742 100.874C147.736 100.634 147.799 100.391 147.924 100.172C148.546 99.4127 149.286 98.7411 150.051 97.9327C150.438 97.5376 150.837 97.1304 151.249 96.711C151.462 96.5013 151.642 96.2886 151.894 96.0697C152.166 95.8661 152.534 95.7901 152.869 95.8783C153.226 95.9573 153.461 96.249 153.677 96.4527C153.902 96.6776 154.134 96.9024 154.366 97.1273C154.829 97.5832 155.304 98.0451 155.785 98.5162C156.27 98.9903 156.76 99.4705 157.257 99.9597C157.376 100.081 157.519 100.188 157.635 100.364C157.741 100.531 157.805 100.729 157.808 100.929C157.812 101.282 157.818 101.637 157.818 101.996C157.83 103.427 157.842 104.822 157.851 106.172V106.302H157.723C156.565 106.308 155.444 106.317 154.366 106.324H154.241V106.202C154.234 105.229 154.231 104.29 154.225 103.394C154.241 102.987 153.924 102.631 153.546 102.579C153.162 102.558 152.705 102.57 152.327 102.576C151.968 102.607 151.666 102.892 151.605 103.227C151.572 103.564 151.596 103.956 151.59 104.296C151.59 104.992 151.59 105.634 151.59 106.223V106.299H151.517C150.408 106.29 149.5 106.284 148.808 106.281C148.537 106.275 148.305 106.272 148.104 106.266C147.946 106.263 147.867 106.26 147.873 106.254Z" fill="#1A2E35"/>
<path d="M359.103 149.913C359.213 153.557 356.62 153.909 354.831 154.052C353.043 154.198 351.011 153.393 349.39 152.624C346.084 151.056 342.879 149.451 341.541 145.813" fill="#FFBF9D"/>
<path d="M399.678 115.86C399.791 115.86 399.882 121.273 399.882 127.953C399.882 134.632 399.791 140.045 399.678 140.045C399.565 140.045 399.474 134.632 399.474 127.953C399.474 121.273 399.565 115.86 399.678 115.86Z" fill="#FF4F5B"/>
<path d="M402.838 118.516C402.948 118.516 403.039 122.649 403.039 127.749C403.039 132.849 402.948 136.982 402.838 136.982C402.722 136.982 402.634 132.849 402.634 127.749C402.634 122.649 402.722 118.516 402.838 118.516Z" fill="#FF4F5B"/>
<path d="M406.394 121.154C406.506 121.154 406.595 124.148 406.595 127.84C406.595 131.533 406.506 134.526 406.394 134.526C406.281 134.526 406.189 131.533 406.189 127.84C406.189 124.148 406.281 121.154 406.394 121.154Z" fill="#FF4F5B"/>
<path d="M409.495 123.427C409.605 123.427 409.696 125.099 409.696 127.156C409.696 129.217 409.605 130.888 409.495 130.888C409.379 130.888 409.291 129.217 409.291 127.156C409.291 125.099 409.379 123.427 409.495 123.427Z" fill="#FF4F5B"/>
<path d="M412.229 125.248C412.341 125.248 412.433 126.166 412.433 127.293C412.433 128.424 412.341 129.341 412.229 129.341C412.116 129.341 412.024 128.424 412.024 127.293C412.024 126.166 412.116 125.248 412.229 125.248Z" fill="#FF4F5B"/>
<path d="M415.33 123.066C415.443 123.066 415.531 124.734 415.531 126.795C415.531 128.855 415.443 130.524 415.33 130.524C415.217 130.524 415.126 128.855 415.126 126.795C415.126 124.734 415.217 123.066 415.33 123.066Z" fill="#FF4F5B"/>
<path d="M418.249 120.063C418.359 120.063 418.45 123.199 418.45 127.068C418.45 130.934 418.359 134.07 418.249 134.07C418.136 134.07 418.045 130.934 418.045 127.068C418.045 123.199 418.136 120.063 418.249 120.063Z" fill="#FF4F5B"/>
<path d="M381.244 121.154C381.357 121.154 381.448 124.148 381.448 127.84C381.448 131.533 381.357 134.526 381.244 134.526C381.131 134.526 381.04 131.533 381.04 127.84C381.04 124.148 381.131 121.154 381.244 121.154Z" fill="#FF4F5B"/>
<path d="M384.343 123.427C384.456 123.427 384.547 125.099 384.547 127.156C384.547 129.217 384.456 130.888 384.343 130.888C384.23 130.888 384.139 129.217 384.139 127.156C384.139 125.099 384.23 123.427 384.343 123.427Z" fill="#FF4F5B"/>
<path d="M387.079 125.248C387.192 125.248 387.283 126.166 387.283 127.293C387.283 128.424 387.192 129.341 387.079 129.341C386.966 129.341 386.878 128.424 386.878 127.293C386.878 126.166 386.966 125.248 387.079 125.248Z" fill="#FF4F5B"/>
<path d="M390.181 121.972C390.293 121.972 390.385 124.132 390.385 126.792C390.385 129.457 390.293 131.615 390.181 131.615C390.068 131.615 389.977 129.457 389.977 126.792C389.977 124.132 390.068 121.972 390.181 121.972Z" fill="#FF4F5B"/>
<path d="M393.1 120.063C393.212 120.063 393.301 123.199 393.301 127.068C393.301 130.934 393.212 134.07 393.1 134.07C392.987 134.07 392.896 130.934 392.896 127.068C392.896 123.199 392.987 120.063 393.1 120.063Z" fill="#FF4F5B"/>
<path d="M396.655 118.607C396.768 118.607 396.859 122.598 396.859 127.521C396.859 132.444 396.768 136.435 396.655 136.435C396.543 136.435 396.451 132.444 396.451 127.521C396.451 122.598 396.543 118.607 396.655 118.607Z" fill="#FF4F5B"/>
<path d="M377.93 130.524C377.817 130.524 377.726 128.855 377.726 126.795C377.726 124.734 377.817 123.066 377.93 123.066C378.042 123.066 378.134 124.734 378.134 126.795C378.134 128.855 378.042 130.524 377.93 130.524Z" fill="#FF4F5B"/>
<path d="M375.193 128.703C375.081 128.703 374.989 127.788 374.989 126.658C374.989 125.527 375.081 124.61 375.193 124.61C375.306 124.61 375.398 125.527 375.398 126.658C375.398 127.788 375.306 128.703 375.193 128.703Z" fill="#FF4F5B"/>
<path d="M421.103 123.066C421.216 123.066 421.308 124.734 421.308 126.795C421.308 128.855 421.216 130.524 421.103 130.524C420.991 130.524 420.902 128.855 420.902 126.795C420.902 124.734 420.991 123.066 421.103 123.066Z" fill="#FF4F5B"/>
<path d="M423.84 124.883C423.953 124.883 424.044 125.801 424.044 126.931C424.044 128.059 423.953 128.977 423.84 128.977C423.727 128.977 423.636 128.059 423.636 126.931C423.636 125.801 423.727 124.883 423.84 124.883Z" fill="#FF4F5B"/>
<path d="M396.336 361.386L402.015 377.833C402.015 377.833 420.689 377.599 422.036 380.535L390.455 392.67L380.547 367.403" fill="#FF4F5B"/>
<path d="M391.726 380.222C391.177 380.623 391.022 381.471 391.4 382.03C391.778 382.593 392.643 382.76 393.198 382.371C393.749 381.979 393.971 380.967 393.53 380.45C393.091 379.933 392.064 379.794 391.622 380.307" fill="#E1E1E1"/>
<path d="M402.467 377.478C402.521 377.633 401.778 378.001 401.211 378.785C400.623 379.557 400.489 380.374 400.322 380.368C400.169 380.392 400.044 379.383 400.748 378.444C401.443 377.499 402.448 377.323 402.467 377.478Z" fill="#1A2E35"/>
<path d="M406.308 377.572C406.4 377.706 405.833 378.225 405.562 379.076C405.263 379.921 405.403 380.675 405.248 380.727C405.111 380.806 404.657 379.949 405.016 378.894C405.364 377.839 406.247 377.426 406.308 377.572Z" fill="#1A2E35"/>
<path d="M409.715 380.803C409.59 380.891 409.078 380.204 409.148 379.207C409.212 378.213 409.809 377.602 409.925 377.706C410.062 377.797 409.767 378.429 409.721 379.247C409.657 380.064 409.864 380.727 409.715 380.803Z" fill="#1A2E35"/>
<path d="M400.757 373.874C400.745 374.038 399.956 374.095 399.109 374.49C398.25 374.867 397.683 375.42 397.552 375.317C397.421 375.241 397.863 374.418 398.871 373.968C399.87 373.512 400.785 373.722 400.757 373.874Z" fill="#1A2E35"/>
<path d="M276.185 355.46L275.832 355.922L268.997 364.82L260.533 370.61L271.868 392.387L284.345 392.4C284.345 392.4 283.446 389.409 277.44 387.859L277.047 375.907L287.827 364.097" fill="#FF4F5B"/>
<path d="M277.365 382.383C277.273 382.511 276.554 382.103 275.588 382.128C274.622 382.128 273.916 382.556 273.818 382.432C273.702 382.337 274.406 381.59 275.579 381.581C276.755 381.559 277.48 382.286 277.365 382.383Z" fill="#1A2E35"/>
<path d="M277.166 379.42C277.041 379.505 276.484 378.772 275.49 378.578C274.497 378.371 273.699 378.836 273.62 378.709C273.577 378.651 273.72 378.444 274.071 378.253C274.415 378.061 274.982 377.919 275.597 378.04C276.213 378.165 276.682 378.517 276.922 378.824C277.175 379.134 277.227 379.383 277.166 379.42Z" fill="#1A2E35"/>
<path d="M277.248 375.612C277.111 375.679 276.688 374.958 275.816 374.661C274.954 374.348 274.168 374.639 274.107 374.5C274.073 374.439 274.232 374.266 274.576 374.138C274.914 374.007 275.454 373.949 276.002 374.144C276.547 374.335 276.931 374.718 277.114 375.031C277.3 375.347 277.315 375.581 277.248 375.612Z" fill="#1A2E35"/>
<path d="M280.591 372.661C280.444 372.713 280.091 372.004 279.317 371.503C278.558 370.98 277.769 370.929 277.76 370.771C277.717 370.628 278.683 370.415 279.625 371.047C280.569 371.67 280.74 372.643 280.591 372.661Z" fill="#1A2E35"/>
<path d="M341.65 256.453C344.596 257.538 330.465 315.505 330.465 315.505L287.827 366.647L273.61 354.433L305.511 305.501L315.517 226.655L338.509 227.904" fill="#1A2E35"/>
<path d="M361.236 226.655C361.638 227.78 385.333 309.205 385.333 309.205L398.468 364.732L381.314 370.306C381.314 370.306 358.804 318.35 356.095 309.613C353.387 300.875 347.007 288.205 347.007 288.205L334.521 255.289C334.521 255.289 314.564 244.297 316.029 225.722" fill="#1A2E35"/>
<path d="M400.528 368.704L399.513 362.021L378.858 368.713L381.259 375.779L400.528 368.704Z" fill="#1A2E35"/>
<path d="M316.225 226.655C316.225 226.655 316.267 226.877 316.322 227.312C316.377 227.761 316.459 228.403 316.563 229.229C316.797 230.904 317.084 233.384 317.931 236.432C318.367 237.948 318.952 239.608 319.866 241.279C320.758 242.963 321.995 244.628 323.488 246.251C326.486 249.5 330.627 252.423 335.514 254.858L335.581 254.891L335.603 254.967C336.383 257.924 337.406 260.975 338.519 264.133C339.64 267.291 340.84 270.558 342.117 273.913C344.667 280.629 347.47 287.722 350.38 295.062C354.435 305.2 358.211 314.897 361.824 323.638C365.426 332.387 368.78 340.219 371.589 346.799C374.408 353.378 376.684 358.703 378.201 362.407C378.963 364.255 379.533 365.701 379.91 366.686C380.09 367.166 380.227 367.54 380.328 367.808C380.419 368.063 380.459 368.197 380.459 368.197C380.459 368.197 380.395 368.072 380.291 367.823C380.182 367.558 380.029 367.191 379.834 366.714C379.42 365.729 378.823 364.3 378.055 362.465C376.458 358.779 374.164 353.466 371.327 346.911C368.482 340.347 365.1 332.524 361.477 323.781C357.842 315.04 354.058 305.352 350.002 295.21C347.092 287.871 344.295 280.775 341.754 274.052C340.481 270.691 339.283 267.418 338.171 264.255C337.065 261.091 336.048 258.031 335.271 255.049L335.359 255.162C330.457 252.697 326.291 249.734 323.287 246.44C321.788 244.795 320.545 243.103 319.655 241.392C318.741 239.696 318.165 238.015 317.739 236.484C316.916 233.411 316.663 230.922 316.459 229.242C316.377 228.412 316.313 227.771 316.27 227.318C316.234 226.883 316.225 226.655 316.225 226.655Z" fill="#375A64"/>
<path d="M351.215 258.799C351.224 258.821 351.029 258.957 350.636 259.131C350.243 259.31 349.633 259.486 348.859 259.544C347.324 259.678 345.093 259.137 343.277 257.59C341.474 256.04 340.468 254.104 339.871 252.721C339.569 252.019 339.365 251.439 339.237 251.035C339.112 250.63 339.061 250.399 339.085 250.39C339.146 250.366 339.478 251.247 340.13 252.6C340.788 253.94 341.812 255.8 343.539 257.283C345.273 258.754 347.376 259.313 348.847 259.258C350.343 259.222 351.184 258.717 351.215 258.799Z" fill="#375A64"/>
<path d="M315.773 308.446C315.7 308.552 313.786 307.09 311.008 306.2C308.238 305.282 305.828 305.337 305.834 305.206C305.834 305.157 306.431 305.078 307.403 305.121C308.375 305.16 309.716 305.355 311.136 305.814C312.549 306.279 313.75 306.914 314.554 307.452C315.365 307.99 315.803 308.406 315.773 308.446Z" fill="#375A64"/>
<path d="M399.285 362.091C399.321 362.197 394.785 363.808 389.151 365.686C383.514 367.567 378.92 369.008 378.883 368.902C378.849 368.795 383.386 367.185 389.023 365.303C394.654 363.425 399.251 361.985 399.285 362.091Z" fill="#375A64"/>
<path d="M269.254 359.189L273.05 352.527L289.775 366.653L284.641 372.245L269.254 359.189Z" fill="#1A2E35"/>
<path d="M289.771 366.653C289.753 366.671 289.512 366.479 289.092 366.121C288.607 365.698 288.016 365.188 287.321 364.583C285.828 363.279 283.766 361.492 281.407 359.602C279.064 357.691 276.956 355.943 275.445 354.664C274.689 354.025 274.083 353.5 273.668 353.132C273.254 352.761 273.032 352.548 273.05 352.527C273.068 352.506 273.324 352.679 273.766 353.01C274.211 353.342 274.848 353.831 275.628 354.442C277.184 355.666 279.32 357.377 281.663 359.289C284.025 361.179 286.072 363.012 287.513 364.37C288.235 365.048 288.811 365.61 289.198 366.005C289.588 366.404 289.789 366.631 289.771 366.653Z" fill="#375A64"/>
<path d="M351.724 102.224C352.44 99.5678 354.444 98.261 357.053 97.3736C359.664 96.4861 362.701 96.9785 364.895 98.6439C366.364 99.7562 367.513 101.376 369.255 101.981C372.122 102.975 375.483 100.832 378.234 102.118C379.861 102.877 380.806 104.859 380.373 106.597C379.941 108.338 378.174 109.645 376.379 109.557C378.25 110.238 378.832 112.903 377.738 114.562C376.647 116.225 374.398 116.854 372.442 116.486C370.483 116.125 368.774 114.939 367.293 113.611C365.809 112.283 364.481 110.779 362.9 109.572C361.315 108.366 359.396 107.451 357.406 107.557C354.713 107.703 352.4 109.73 351.2 112.14C349.999 114.55 349.722 117.301 349.573 119.987C349.42 122.674 349.374 125.406 348.576 127.977C348.482 128.278 348.339 128.615 348.037 128.709C347.598 128.843 347.226 128.378 347.01 127.977C344.557 123.443 343.013 118.422 342.485 113.295C342.181 110.317 342.26 107.5 343.902 104.992C345.545 102.488 349.688 100.644 351.724 102.224Z" fill="#1A2E35"/>
<path d="M346.514 114.693L345.136 144.835C344.902 149.958 345.609 157.535 353.75 157.535C360.813 157.003 362.903 150.42 363.116 145.637C363.217 143.367 363.308 141.476 363.332 141.242C363.332 141.242 371.059 140.872 371.961 133.301C372.397 129.645 372.68 122.039 372.857 115.152C373.046 107.758 367.5 101.464 360.13 100.68L359.396 100.601C351.44 100.224 346.675 106.749 346.514 114.693Z" fill="#FFBF9D"/>
<path d="M363.357 141.136C363.357 141.136 358.512 141.014 353.75 137.276C353.75 137.276 355.508 142.978 363.165 143.099" fill="#FF9A6C"/>
<path d="M370.102 119.993C370.059 120.568 369.538 121.008 368.938 120.975C368.338 120.944 367.884 120.455 367.923 119.881C367.966 119.306 368.487 118.869 369.084 118.899C369.687 118.93 370.141 119.422 370.102 119.993Z" fill="#1A2E35"/>
<path d="M370.827 118.699C370.678 118.826 369.922 118.133 368.752 118.012C367.588 117.875 366.665 118.383 366.555 118.225C366.5 118.158 366.662 117.918 367.064 117.684C367.46 117.453 368.115 117.258 368.844 117.337C369.569 117.419 370.154 117.75 370.477 118.063C370.806 118.376 370.9 118.644 370.827 118.699Z" fill="#1A2E35"/>
<path d="M358.607 119.176C358.564 119.747 358.046 120.188 357.446 120.154C356.843 120.124 356.389 119.635 356.428 119.06C356.471 118.486 356.992 118.048 357.592 118.079C358.192 118.112 358.646 118.601 358.607 119.176Z" fill="#1A2E35"/>
<path d="M359.325 117.699C359.176 117.826 358.417 117.13 357.25 117.012C356.086 116.872 355.163 117.38 355.053 117.225C354.998 117.155 355.16 116.915 355.565 116.684C355.961 116.453 356.613 116.255 357.342 116.337C358.07 116.419 358.652 116.751 358.975 117.061C359.304 117.374 359.398 117.641 359.325 117.699Z" fill="#1A2E35"/>
<path d="M362.644 126.786C362.644 126.719 363.384 126.67 364.575 126.646C364.877 126.646 365.166 126.618 365.236 126.421C365.331 126.211 365.24 125.88 365.133 125.518C364.929 124.768 364.715 123.981 364.493 123.16C363.612 119.805 363.009 117.058 363.143 117.024C363.28 116.991 364.103 119.68 364.984 123.038C365.194 123.862 365.395 124.649 365.584 125.406C365.663 125.755 365.815 126.16 365.614 126.588C365.511 126.801 365.276 126.941 365.078 126.971C364.88 127.007 364.712 126.995 364.566 126.986C363.375 126.925 362.641 126.852 362.644 126.786Z" fill="#1A2E35"/>
<path d="M360.115 113.164C359.965 113.468 358.817 113.198 357.43 113.216C356.041 113.207 354.892 113.49 354.743 113.186C354.676 113.043 354.899 112.763 355.38 112.505C355.855 112.247 356.593 112.031 357.424 112.028C358.256 112.025 358.994 112.235 359.472 112.49C359.953 112.745 360.182 113.022 360.115 113.164Z" fill="#1A2E35"/>
<path d="M370.757 115.283C370.523 115.526 369.749 115.167 368.783 115.052C367.82 114.9 366.976 115.04 366.818 114.742C366.751 114.599 366.906 114.347 367.293 114.134C367.671 113.921 368.283 113.781 368.948 113.873C369.609 113.964 370.157 114.265 370.465 114.572C370.779 114.879 370.864 115.164 370.757 115.283Z" fill="#1A2E35"/>
<path d="M346.537 120.37C346.412 120.3 341.479 118.276 341.092 123.473C340.705 128.673 346.019 127.989 346.037 127.84C346.059 127.691 346.537 120.37 346.537 120.37Z" fill="#FFBF9D"/>
<path d="M344.594 125.752C344.573 125.734 344.5 125.81 344.338 125.868C344.186 125.926 343.924 125.953 343.662 125.831C343.125 125.588 342.723 124.683 342.769 123.743C342.79 123.269 342.924 122.826 343.119 122.467C343.308 122.099 343.573 121.85 343.857 121.823C344.134 121.78 344.32 121.96 344.375 122.108C344.433 122.26 344.39 122.361 344.417 122.373C344.433 122.385 344.536 122.294 344.509 122.075C344.497 121.972 344.445 121.844 344.329 121.735C344.213 121.625 344.03 121.558 343.838 121.564C343.433 121.564 343.043 121.905 342.83 122.3C342.592 122.698 342.431 123.193 342.406 123.728C342.361 124.777 342.827 125.798 343.564 126.071C343.924 126.193 344.238 126.105 344.405 125.995C344.576 125.877 344.609 125.764 344.594 125.752Z" fill="#FF9A6C"/>
<path d="M374.633 113.751C371.19 114.283 367.521 113.04 365.117 110.524C363.436 108.764 362.25 106.366 360.008 105.409C358.5 104.764 356.732 104.916 355.221 105.552C353.71 106.187 352.424 107.266 351.294 108.454C352.351 112.459 350.904 116.656 349.478 120.546C349.319 120.978 349.137 121.44 348.747 121.68C348.082 122.084 347.202 121.619 346.723 121.002C345.962 120.018 345.764 118.717 345.675 117.474C345.474 114.644 345.709 111.76 346.623 109.074C347.537 106.39 349.152 103.907 351.403 102.175C354.216 100.011 357.933 99.127 361.458 99.5555C364.986 99.9871 368.307 101.677 370.903 104.099C372.104 105.223 373.182 106.542 373.7 108.104" fill="#1A2E35"/>
<path d="M363.003 130.077C362.82 130.536 362.634 131.004 362.33 131.393C362.025 131.782 361.58 132.089 361.086 132.113C360.559 132.137 360.051 131.827 359.755 131.39C359.462 130.952 359.362 130.408 359.386 129.882C359.408 129.408 359.627 128.84 360.099 128.785C360.297 128.761 360.489 128.837 360.675 128.913C361.504 129.247 362.333 129.581 363.164 129.919" fill="#FF9A6C"/>
<path d="M362.009 132.122C361.994 132.043 361.449 132.265 360.681 131.958C360.309 131.806 359.901 131.511 359.679 131.046C359.453 130.587 359.407 129.967 359.645 129.423C359.7 129.287 359.782 129.162 359.861 129.053C359.959 128.949 359.944 128.952 360.05 128.971C360.151 128.998 360.315 129.074 360.449 129.126C360.587 129.18 360.724 129.238 360.858 129.29C361.391 129.506 361.872 129.694 362.281 129.846C363.094 130.15 363.612 130.311 363.633 130.253C363.658 130.195 363.189 129.934 362.402 129.557C362.012 129.369 361.543 129.153 361.019 128.916C360.888 128.855 360.751 128.797 360.617 128.737C360.471 128.676 360.358 128.612 360.16 128.551C360.062 128.524 359.925 128.506 359.791 128.56C359.66 128.615 359.578 128.703 359.517 128.776C359.404 128.925 359.307 129.077 359.237 129.247C358.944 129.925 359.014 130.679 359.313 131.235C359.618 131.803 360.136 132.122 360.577 132.253C361.025 132.39 361.409 132.356 361.656 132.292C361.903 132.229 362.019 132.146 362.009 132.122Z" fill="#1A2E35"/>
<path d="M387.628 171.87L373.204 202.622C371.836 205.54 369.063 207.558 365.858 207.965C361.702 208.497 357.692 206.23 356.017 202.4L345.249 177.811L364.003 155.83L365.828 182.227L377.656 165.512" fill="#FF4F5B"/>
<path d="M361.583 192.6C361.477 192.56 362.312 190.138 363.445 187.19C364.582 184.242 365.584 181.884 365.691 181.923C365.794 181.963 364.959 184.385 363.826 187.336C362.692 190.284 361.687 192.642 361.583 192.6Z" fill="#1A2E35"/>
<path d="M361.235 226.655L364.605 222.92C365.778 221.62 366.354 219.893 366.199 218.152L364.41 213.639L366.802 160.069C367.043 155.73 366.988 149.475 362.908 147.713L345.242 142.501C345.242 142.501 333.201 145.066 330.352 151.338C328.116 156.264 324.63 189.567 324.63 189.567L319.554 203.078C318.969 205.74 315.103 220.647 314.847 224.072L315.517 226.655" fill="#FF4F5B"/>
<path d="M364.41 213.636C364.401 213.636 364.392 213.542 364.386 213.359C364.38 213.141 364.374 212.873 364.367 212.551C364.364 211.797 364.364 210.776 364.361 209.509C364.383 206.85 364.413 203.166 364.45 198.839V198.827C364.7 195.806 364.916 192.444 365.117 188.904C365.495 182.084 365.793 175.9 366.116 171.432C366.272 169.199 366.427 167.39 366.546 166.144C366.61 165.555 366.662 165.081 366.701 164.71C366.744 164.382 366.771 164.212 366.784 164.212C366.799 164.215 366.799 164.388 366.784 164.716C366.765 165.09 366.738 165.564 366.704 166.157C366.631 167.457 366.528 169.253 366.403 171.451C366.177 175.967 365.863 182.124 365.522 188.928C365.321 192.469 365.093 195.836 364.821 198.857V198.845C364.724 203.169 364.645 206.853 364.587 209.512C364.544 210.776 364.511 211.797 364.486 212.554C364.471 212.876 364.456 213.141 364.447 213.359C364.431 213.542 364.422 213.636 364.41 213.636Z" fill="#1A2E35"/>
<path d="M332.491 237.271L348.451 231.746L334.615 194.642L344.079 162.452C345.523 156.9 343.006 149.083 337.436 147.64C337.196 147.579 336.751 145.582 336.51 145.682C334.326 146.576 328.853 150.278 326.593 153.921C324.856 156.717 323.655 159.811 322.909 163.014L317.169 187.637C316.047 192.451 316.437 197.489 318.287 202.072" fill="#FF4F5B"/>
<path d="M317.373 199.522C317.379 199.519 317.407 199.58 317.459 199.696C317.517 199.829 317.59 200.003 317.684 200.221C317.879 200.705 318.159 201.391 318.519 202.273C319.244 204.09 320.292 206.716 321.612 210.022C324.244 216.693 327.961 226.111 332.34 237.198L332.102 237.088C337.108 235.377 342.577 233.505 348.284 231.551L348.391 231.94C348.272 231.837 348.049 231.606 347.988 231.396L347.824 230.971C347.714 230.688 347.604 230.402 347.492 230.114C347.272 229.539 347.05 228.956 346.824 228.369C346.377 227.193 345.923 225.999 345.466 224.795C341.316 213.791 337.428 203.47 334.122 194.699L334.104 194.651L334.113 194.599C336.337 184.99 338.196 176.964 339.5 171.323C340.158 168.53 340.679 166.327 341.038 164.801C341.218 164.066 341.358 163.494 341.456 163.084C341.505 162.905 341.541 162.762 341.572 162.646C341.599 162.549 341.614 162.501 341.62 162.501C341.623 162.501 341.617 162.552 341.599 162.653C341.575 162.768 341.547 162.914 341.511 163.096C341.425 163.507 341.3 164.084 341.145 164.825C340.807 166.357 340.319 168.567 339.701 171.369C338.43 177.018 336.624 185.053 334.457 194.678L334.451 194.578C337.772 203.343 341.678 213.654 345.843 224.649C346.3 225.853 346.757 227.05 347.202 228.226C347.428 228.813 347.65 229.393 347.87 229.971C347.982 230.257 348.092 230.542 348.202 230.828L348.366 231.25C348.384 231.296 348.384 231.314 348.36 231.357C348.348 231.378 348.333 231.405 348.324 231.439L348.311 231.49L348.308 231.518L348.305 231.53V231.545L348.345 231.733L348.415 231.934C342.702 233.876 337.233 235.739 332.224 237.444L332.053 237.502L331.989 237.334C327.669 226.227 323.997 216.787 321.398 210.104C320.122 206.783 319.107 204.145 318.403 202.318C318.068 201.425 317.809 200.732 317.623 200.243C317.544 200.021 317.48 199.845 317.431 199.708C317.389 199.586 317.37 199.522 317.373 199.522Z" fill="#1A2E35"/>
<path d="M325.852 195.727C325.825 195.69 326.208 195.35 326.934 194.958C327.656 194.566 328.737 194.155 329.99 193.982C331.245 193.812 332.4 193.918 333.198 194.104C334.002 194.286 334.462 194.511 334.447 194.557C334.42 194.684 332.473 194.034 330.044 194.383C327.613 194.696 325.913 195.842 325.852 195.727Z" fill="#1A2E35"/>
<path d="M366.784 155.83C366.793 155.842 366.687 155.909 366.48 156.024C366.266 156.134 365.971 156.331 365.55 156.501C364.731 156.89 363.481 157.325 361.888 157.644C358.707 158.298 354.094 158.243 349.335 156.811C344.551 155.392 340.81 152.669 338.524 150.399C337.373 149.256 336.538 148.244 336.008 147.512C335.73 147.153 335.551 146.852 335.417 146.655C335.286 146.454 335.225 146.348 335.237 146.339C335.264 146.321 335.566 146.719 336.133 147.415C336.696 148.114 337.559 149.089 338.723 150.192C341.038 152.384 344.743 155.024 349.454 156.426C354.143 157.836 358.689 157.936 361.833 157.362C363.411 157.085 364.658 156.699 365.489 156.356C366.321 156.021 366.769 155.796 366.784 155.83Z" fill="#FAFAFA"/>
<path d="M339.363 171.268C339.356 171.296 339.085 171.29 338.595 171.25C338.101 171.22 337.391 171.122 336.523 170.952C334.792 170.615 332.428 169.88 330.067 168.548C327.708 167.211 325.856 165.576 324.655 164.288C324.055 163.643 323.595 163.096 323.306 162.698C323.007 162.306 322.858 162.078 322.879 162.063C322.934 162.017 323.619 162.862 324.859 164.087C326.103 165.312 327.952 166.883 330.268 168.196C332.583 169.503 334.89 170.269 336.587 170.673C338.284 171.08 339.369 171.198 339.363 171.268Z" fill="#FAFAFA"/>
<path d="M365.236 178.431C365.245 178.456 364.889 178.592 364.234 178.817C363.585 179.048 362.619 179.316 361.412 179.586C360.206 179.851 358.746 180.076 357.113 180.194C355.483 180.294 353.676 180.288 351.796 180.103C348.03 179.711 344.734 178.699 342.439 177.802C341.291 177.349 340.376 176.945 339.764 176.632C339.146 176.325 338.81 176.146 338.823 176.119C338.835 176.094 339.191 176.228 339.828 176.486C340.459 176.757 341.388 177.115 342.54 177.532C344.846 178.355 348.119 179.31 351.836 179.699C353.694 179.881 355.477 179.899 357.092 179.82C358.706 179.726 360.154 179.532 361.357 179.304C363.764 178.845 365.212 178.355 365.236 178.431Z" fill="#FAFAFA"/>
<path d="M364.201 199.638C364.21 199.662 363.82 199.829 363.104 200.112C362.747 200.258 362.309 200.425 361.781 200.577C361.257 200.732 360.669 200.942 359.993 201.085C359.326 201.249 358.591 201.425 357.79 201.547C356.995 201.705 356.13 201.784 355.225 201.887C353.409 202.03 351.395 202.051 349.298 201.857C347.202 201.641 345.234 201.224 343.479 200.729C342.607 200.459 341.779 200.209 341.029 199.902C340.264 199.629 339.579 199.313 338.954 199.024C338.321 198.754 337.781 198.435 337.297 198.185C336.812 197.936 336.41 197.687 336.087 197.477C335.438 197.067 335.088 196.83 335.103 196.806C335.118 196.781 335.496 196.973 336.166 197.34C336.502 197.529 336.91 197.754 337.403 197.982C337.894 198.216 338.436 198.514 339.073 198.763C339.701 199.033 340.383 199.331 341.145 199.586C341.891 199.878 342.717 200.112 343.579 200.37C345.322 200.841 347.266 201.243 349.338 201.452C351.41 201.647 353.396 201.635 355.194 201.513C356.09 201.425 356.946 201.358 357.735 201.215C358.53 201.109 359.262 200.951 359.929 200.805C360.602 200.68 361.19 200.495 361.714 200.358C362.245 200.228 362.689 200.085 363.052 199.963C363.78 199.729 364.188 199.611 364.201 199.638Z" fill="#FAFAFA"/>
<path d="M377.058 196.28C377.046 196.322 376.232 196.198 374.974 195.781C373.718 195.365 372.027 194.614 370.343 193.484C368.661 192.347 367.332 191.065 366.476 190.056C365.617 189.047 365.196 188.342 365.236 188.314C365.288 188.275 365.79 188.919 366.689 189.864C367.588 190.81 368.92 192.034 370.571 193.15C372.222 194.259 373.859 195.034 375.074 195.511C376.29 195.991 377.073 196.213 377.058 196.28Z" fill="#FAFAFA"/>
<path d="M383.707 180.003C383.692 180.048 382.969 179.893 381.86 179.468C380.751 179.042 379.264 178.313 377.781 177.261C376.297 176.207 375.118 175.046 374.35 174.14C373.582 173.235 373.201 172.606 373.238 172.578C373.341 172.49 375.081 174.873 378.015 176.93C380.928 179.018 383.756 179.878 383.707 180.003Z" fill="#FAFAFA"/>
<path d="M334.829 190.171C334.835 190.199 334.585 190.253 334.128 190.323C333.671 190.402 333.004 190.466 332.175 190.496C330.52 190.566 328.211 190.411 325.755 189.77C323.299 189.123 321.212 188.123 319.808 187.251C319.101 186.816 318.552 186.436 318.193 186.141C317.83 185.856 317.638 185.686 317.656 185.664C317.699 185.61 318.522 186.208 319.951 187.005C321.377 187.801 323.446 188.743 325.859 189.378C328.272 190.007 330.536 190.205 332.172 190.211C333.808 190.22 334.823 190.101 334.829 190.171Z" fill="#FAFAFA"/>
<path d="M336.572 202.115C336.569 202.185 335.618 202.163 334.11 202.343C332.601 202.519 330.536 202.957 328.4 203.847C326.267 204.75 324.509 205.92 323.33 206.874C322.151 207.828 321.502 208.518 321.447 208.469C321.429 208.451 321.572 208.263 321.855 207.938C322.129 207.606 322.571 207.166 323.147 206.655C324.296 205.631 326.063 204.394 328.241 203.476C330.423 202.565 332.547 202.16 334.082 202.057C334.85 202.005 335.475 201.999 335.904 202.033C336.334 202.057 336.572 202.084 336.572 202.115Z" fill="#FAFAFA"/>
<path d="M344.984 222.96C344.975 223.033 343.988 222.866 342.391 222.881C341.593 222.884 340.645 222.969 339.606 223.136C338.57 223.321 337.446 223.604 336.303 224.02C335.167 224.452 334.134 224.978 333.229 225.513C332.333 226.066 331.563 226.625 330.959 227.145C329.744 228.178 329.11 228.95 329.052 228.901C329.031 228.883 329.174 228.679 329.454 228.324C329.725 227.965 330.176 227.482 330.77 226.929C331.358 226.373 332.126 225.78 333.031 225.196C333.945 224.628 334.999 224.084 336.16 223.64C337.327 223.215 338.485 222.935 339.545 222.765C340.612 222.616 341.581 222.562 342.394 222.595C343.205 222.622 343.86 222.692 344.301 222.787C344.746 222.872 344.99 222.932 344.984 222.96Z" fill="#FAFAFA"/>
<path d="M324.143 217.337C324.131 217.45 322.382 217.328 320.24 217.067C318.098 216.806 316.374 216.505 316.389 216.395C316.401 216.283 318.15 216.405 320.292 216.666C322.434 216.927 324.158 217.228 324.143 217.337Z" fill="#FAFAFA"/>
<path d="M363.381 214.186C363.402 214.207 363.235 214.396 362.918 214.718C362.604 215.046 362.104 215.475 361.455 215.958C360.806 216.45 359.978 216.958 359.018 217.441C358.049 217.909 356.943 218.343 355.739 218.663C354.533 218.969 353.354 219.128 352.278 219.194C351.203 219.237 350.231 219.197 349.426 219.085C348.619 218.979 347.976 218.848 347.54 218.711C347.108 218.587 346.87 218.504 346.876 218.477C346.894 218.404 347.863 218.663 349.457 218.799C350.252 218.875 351.206 218.884 352.257 218.821C353.308 218.739 354.457 218.568 355.636 218.27C356.812 217.957 357.897 217.544 358.853 217.103C359.804 216.648 360.63 216.177 361.288 215.724C362.613 214.83 363.329 214.134 363.381 214.186Z" fill="#1A2E35"/>
<path d="M355.13 218.599C355.151 218.644 354.597 218.966 353.631 219.328C352.668 219.687 351.272 220.051 349.697 220.17C348.119 220.285 346.69 220.155 345.678 219.988C344.664 219.82 344.054 219.638 344.064 219.586C344.082 219.444 346.58 219.988 349.664 219.766C352.756 219.553 355.084 218.471 355.13 218.599Z" fill="#FAFAFA"/>
<path d="M391.022 158L398.664 157.45C398.664 157.45 400.337 159.562 398.996 161.215C397.655 162.868 395.123 167.196 395.123 167.196L389.142 168.038L386.751 172.344L377.723 166.509L381.821 158.352L388.46 152.551L392.686 152.642L395.053 155.462C395.053 155.462 392.448 156.745 391.202 154.663L389.185 155.061L389.158 156.228C389.133 157.252 390.002 158.073 391.022 158Z" fill="#FFBF9D"/>
<path d="M398.575 157.738L403.77 156.246C403.77 156.246 404.958 156.1 405.513 156.909L405.668 157.444L399.282 160.191" fill="#FFBF9D"/>
<path d="M387.204 163.44C387.158 163.403 387.454 162.984 387.911 162.309C388.356 161.638 388.98 160.677 389.151 159.486C389.236 158.89 389.175 158.331 389.002 157.836C388.922 157.58 388.831 157.325 388.794 157.067C388.752 156.799 388.794 156.55 388.831 156.35C388.989 155.532 389.169 155.055 389.221 155.067C389.279 155.079 389.197 155.584 389.114 156.389C389.044 156.805 389.145 157.191 389.358 157.714C389.562 158.237 389.651 158.893 389.553 159.541C389.361 160.853 388.648 161.844 388.142 162.479C387.615 163.121 387.247 163.473 387.204 163.44Z" fill="#FF9A6C"/>
<path d="M408.435 151.533C408.478 151.679 409.221 153.326 409.221 153.326L388.061 163.804L386.994 161.829" fill="#1A2E35"/>
<path d="M395.075 166.856C395.599 166.448 395.477 165.57 395.005 165.105C394.532 164.64 393.847 164.482 393.195 164.351C392.131 164.136 391.056 163.938 389.971 163.972C389.612 163.981 389.243 164.02 388.935 164.203C388.624 164.382 388.396 164.74 388.463 165.09C388.548 165.515 388.999 165.752 389.407 165.907C390.501 166.327 391.644 166.619 392.802 166.774" fill="#FFBF9D"/>
<path d="M392.801 166.774C392.798 166.822 391.994 166.801 390.732 166.494C390.418 166.415 390.077 166.321 389.715 166.199C389.364 166.069 388.947 165.971 388.575 165.64C388.392 165.476 388.243 165.208 388.261 164.917C388.273 164.631 388.42 164.379 388.615 164.193C389.038 163.807 389.608 163.774 390.092 163.765C391.098 163.753 392.036 163.923 392.868 164.093C393.685 164.26 394.504 164.437 395.019 164.923C395.549 165.418 395.58 166.069 395.452 166.421C395.312 166.792 395.077 166.874 395.074 166.856C395.047 166.828 395.226 166.707 395.3 166.375C395.37 166.069 395.284 165.512 394.83 165.139C394.373 164.747 393.63 164.607 392.795 164.461C391.966 164.312 391.055 164.157 390.099 164.169C389.626 164.172 389.163 164.227 388.886 164.482C388.593 164.747 388.566 165.136 388.834 165.37C389.09 165.622 389.483 165.746 389.827 165.883C390.178 166.014 390.507 166.123 390.808 166.217C392.024 166.588 392.81 166.71 392.801 166.774Z" fill="#FF9A6C"/>
<path d="M397.683 162.713C396.016 161.984 394.797 161.598 393.131 160.869C392.585 160.632 391.994 160.388 391.415 160.519C390.836 160.653 390.364 161.352 390.687 161.85C390.8 162.027 390.986 162.142 391.165 162.251C392.783 163.23 394.401 164.212 396.019 165.193" fill="#FFBF9D"/>
<path d="M396.019 165.193C395.992 165.239 395.26 164.856 394.099 164.196C393.484 163.838 392.804 163.443 392.07 163.017C391.686 162.786 391.287 162.546 390.876 162.3C390.659 162.169 390.41 161.911 390.385 161.577C390.358 161.252 390.498 160.96 390.69 160.735C390.888 160.519 391.159 160.352 391.452 160.309C391.729 160.258 392.006 160.285 392.256 160.343C392.762 160.467 393.176 160.689 393.578 160.856C394.358 161.185 395.081 161.489 395.736 161.765C396.97 162.279 397.707 162.665 397.683 162.713C397.661 162.765 396.887 162.476 395.632 162.033C395.004 161.808 394.252 161.537 393.432 161.203C393.018 161.036 392.603 160.829 392.168 160.732C391.732 160.632 391.275 160.671 390.995 161.005C390.854 161.163 390.772 161.364 390.787 161.537C390.803 161.71 390.915 161.85 391.098 161.975C391.5 162.224 391.89 162.464 392.265 162.698C392.981 163.151 393.645 163.57 394.249 163.95C395.37 164.674 396.049 165.145 396.019 165.193Z" fill="#FF9A6C"/>
<path d="M399.282 160.191C397.57 159.571 396.421 159.142 394.709 158.523C394.151 158.322 393.545 158.115 392.975 158.285C392.405 158.456 391.982 159.185 392.335 159.659C392.457 159.829 392.652 159.933 392.838 160.03C394.517 160.905 396.193 161.777 397.872 162.653" fill="#FFBF9D"/>
<path d="M397.871 162.653C397.844 162.701 397.091 162.367 395.894 161.783C395.26 161.467 394.559 161.118 393.804 160.744C393.405 160.537 392.993 160.328 392.567 160.109C392.35 159.99 392.073 159.762 392.018 159.431C391.96 159.112 392.073 158.805 392.25 158.571C392.427 158.334 392.679 158.152 392.969 158.079C393.24 158.006 393.52 158.012 393.773 158.051C394.285 158.137 394.715 158.328 395.126 158.477C395.912 158.781 396.643 159.063 397.308 159.319C398.545 159.808 399.3 160.139 399.282 160.191C399.261 160.243 398.472 160.009 397.207 159.589C396.537 159.358 395.796 159.103 394.998 158.826C394.581 158.684 394.151 158.51 393.715 158.443C393.274 158.38 392.823 158.456 392.576 158.811C391.899 159.659 393.304 159.969 393.977 160.413C394.718 160.817 395.403 161.191 396.028 161.531C397.192 162.179 397.896 162.604 397.871 162.653Z" fill="#FF9A6C"/>
<path d="M398.95 152.046C398.907 152.028 399.041 151.587 399.486 151.001C399.922 150.42 400.711 149.715 401.78 149.323C402.85 148.934 403.91 148.965 404.62 149.129C405.336 149.29 405.723 149.536 405.705 149.579C405.68 149.639 405.263 149.49 404.571 149.411C403.886 149.326 402.905 149.345 401.921 149.703C400.933 150.065 400.175 150.682 399.706 151.186C399.23 151.694 399.005 152.077 398.95 152.046Z" fill="#1A2E35"/>
<path d="M397.143 151.092C397.104 151.08 397.311 150.423 398.018 149.591C398.709 148.761 399.965 147.816 401.583 147.378C403.201 146.941 404.739 147.077 405.784 147.324C406.838 147.567 407.43 147.88 407.414 147.919C407.393 147.983 406.768 147.77 405.729 147.603C404.7 147.436 403.225 147.354 401.689 147.767C400.157 148.184 398.947 149.038 398.231 149.785C397.5 150.53 397.204 151.128 397.143 151.092Z" fill="#1A2E35"/>
<path d="M394.522 150.235C394.501 150.22 394.602 150.022 394.824 149.688C395.046 149.351 395.406 148.889 395.909 148.369C396.902 147.33 398.566 146.099 400.698 145.439C402.828 144.78 404.9 144.859 406.308 145.157C407.018 145.303 407.575 145.482 407.95 145.634C408.322 145.786 408.517 145.895 408.507 145.919C408.483 145.986 407.657 145.652 406.259 145.439C404.87 145.221 402.874 145.19 400.817 145.828C398.761 146.46 397.13 147.609 396.11 148.573C395.077 149.536 394.58 150.278 394.522 150.235Z" fill="#1A2E35"/>
<path d="M392.667 149.357C392.646 149.351 392.713 149.08 392.914 148.621C393.112 148.159 393.483 147.524 394.068 146.837C394.647 146.144 395.473 145.439 396.475 144.798C397.481 144.163 398.669 143.601 399.964 143.157C402.578 142.224 405.162 142.339 406.905 142.704C407.785 142.883 408.477 143.105 408.943 143.285C409.409 143.464 409.656 143.592 409.647 143.613C409.623 143.686 408.593 143.272 406.853 142.984C405.129 142.701 402.63 142.634 400.098 143.54C397.548 144.394 395.458 145.728 394.282 147.026C393.087 148.317 392.746 149.399 392.667 149.357Z" fill="#1A2E35"/>
<path d="M349.203 238.593C347.613 238.03 347.78 239.134 348.35 240.422C345.321 242.328 342.013 244.701 338.432 244.726L334.627 236.228L345.425 232.536L345.62 233.089C345.94 233.405 347.086 234.484 349.17 235.882C349.813 236.313 350.529 236.626 351.281 236.821C352.192 237.052 353.417 237.313 354.13 237.246C355.014 237.167 355.538 238.201 354.934 238.732C354.328 239.264 351.897 239.547 349.203 238.593Z" fill="#FFBF9D"/>
<path d="M349.517 239.55C349.551 239.583 349.078 240.13 348.183 240.884C347.29 241.635 345.952 242.565 344.34 243.34C342.723 244.109 341.16 244.568 340.011 244.789C338.862 245.014 338.14 245.042 338.134 244.993C338.107 244.862 340.989 244.51 344.164 242.972C347.351 241.468 349.435 239.447 349.517 239.55Z" fill="#375A64"/>
</svg>
